<ttFont>
          <CharString index="0">
            rmoveto
            15 11 4 9 10 hvcurveto
            61 74 63 -74 rlineto
            -9 10 10 -4 13 hhcurveto
            17 9 6 9 5 -2 6 -4 6 hvcurveto
            -57 88 rlineto
            15 -10 -16 7 -20 hhcurveto
            -25 0 callsubr
            -7 -15 -10 hvcurveto
            -56 -88 rlineto
            -4 -7 -2 -6 -5 vvcurveto
            -9 8 -5 15 vhcurveto
            endchar
          </CharString>
          <CharString index="1">
            -100 callsubr
            -4 -103 callgsubr
            return
          </CharString>
          <CharString index="2">
            -98 callgsubr
            51 vlineto
            -106 callsubr
            return
          </CharString>
          <CharString index="3">
            -104 callgsubr
            endchar
          </CharString>
          <CharString index="4">
            rmoveto
            -104 callsubr
          </CharString>
          <CharString index="5">
            37 -9 callsubr
            526 -20 hstemhm
            75 84 228 -19 callsubr
            75 156 rmoveto
            -101 61 -61 102 56 58 28 47 42 vhcurveto
            hintmask 10111000
            -91 callsubr
            355 vlineto
            -106 callsubr
            hintmask 01111000
            -85 callgsubr
            return
          </CharString>
          <CharString index="6">
            rmoveto
            -107 callgsubr
            return
          </CharString>
          <CharString index="7">
            14 -12 8 -28 vhcurveto
            return
          </CharString>
          <CharString index="8">
            -14 12 -8 28 vhcurveto
            return
          </CharString>
          <CharString index="9">
            -42 callsubr
            350 -96 callsubr
            -292 244 261 -96 callsubr
            -261 228 291 -96 callsubr
            -349 hlineto
            -21 -9 -9 -21 hvcurveto
            return
          </CharString>
          <CharString index="10">
            -90 callgsubr
            16 -94 callgsubr
            return
          </CharString>
          <CharString index="11">
            hlineto
            -97 callsubr
            return
          </CharString>
          <CharString index="12">
            -99 callsubr
            -98 callgsubr
            return
          </CharString>
          <CharString index="13">
            rmoveto
            25 hlineto
            20 16 7 15 10 hvcurveto
            57 88 rlineto
            4 6 2 6 5 vvcurveto
            9 -9 6 -17 -13 -10 -4 -9 -10 vhcurveto
            -63 -74 -61 74 rlineto
            9 -10 -11 4 -15 hhcurveto
            -15 -8 -5 -9 -5 2 -6 4 -7 hvcurveto
            56 -88 rlineto
            -15 10 16 -7 20 hhcurveto
            endchar
          </CharString>
          <CharString index="14">
            hintmask 00000000
            hintmask 11101000
            -98 callsubr
            return
          </CharString>
          <CharString index="15">
            17 -102 callgsubr
            66 vlineto
            -100 callsubr
            -17 -103 callgsubr
            return
          </CharString>
          <CharString index="16">
            -28 6 5 -42 24 hhcurveto
            13 41 4 19 hvcurveto
            5 -12 39 82 vvcurveto
            return
          </CharString>
          <CharString index="17">
            rmoveto
            -95 callsubr
            return
          </CharString>
          <CharString index="18">
            20 -90 callsubr
            return
          </CharString>
          <CharString index="19">
            108 -89 callsubr
            431 87 -72 callgsubr
            -87 87 hlineto
            66 25 8 29 vhcurveto
            29 5 -5 9 hhcurveto
            14 7 39 8 27 -46 3 -27 -50 -79 -19 -119 hvcurveto
            -95 -40 vlineto
            -77 callsubr
            40 hlineto
            return
          </CharString>
          <CharString index="20">
            89 hintmask 00000000
            hintmask 11101010
            -95 callgsubr
            hintmask 00010100
            return
          </CharString>
          <CharString index="21">
            196 28 rmoveto
            -87 -212 -2 -2 -6 vvcurveto
            -10 11 -6 22 vhcurveto
            15 hlineto
            24 17 6 15 6 hvcurveto
            257 681 -52 callgsubr
            -133 -361 -136 361 rlineto
            12 -5 -15 -32 callsubr
            return
          </CharString>
          <CharString index="22">
            rmoveto
            hintmask 00010010
            -55 callgsubr
            hintmask 00100010
            -18 callsubr
            hintmask 00001010
            -84 callgsubr
          </CharString>
          <CharString index="23">
            88 -20 callsubr
            -93 callgsubr
            hintmask 00101000
            return
          </CharString>
          <CharString index="24">
            vlineto
            -78 callgsubr
            return
          </CharString>
          <CharString index="25">
            -60 callgsubr
            -56 callgsubr
            vhcurveto
            -69 callsubr
            return
          </CharString>
          <CharString index="26">
            -8 7 7 -5 8 hhcurveto
            16 19 21 12 6 -2 callgsubr
            -111 145 111 144 rlineto
            5 7 3 7 6 vvcurveto
            17 -23 15 -12 -8 -7 -4 -8 -7 vhcurveto
            -130 -156 rlineto
            -9 -11 -4 -8 -9 vvcurveto
            -9 4 -8 9 -11 vhcurveto
            return
          </CharString>
          <CharString index="27">
            91 -89 callsubr
            483 vlineto
            -106 callsubr
            return
          </CharString>
          <CharString index="28">
            130 156 rlineto
            9 11 4 8 9 vvcurveto
            9 -4 8 -9 11 vhcurveto
            -130 156 rlineto
            8 -7 -7 4 -8 hhcurveto
            -12 -23 -15 -17 -6 3 -7 5 -7 hvcurveto
            111 -144 -111 -145 -3 callsubr
            -6 vvcurveto
            return
          </CharString>
          <CharString index="29">
            8 14 hvcurveto
            return
          </CharString>
          <CharString index="30">
            -75 callgsubr
            -12 -83 callsubr
            return
          </CharString>
          <CharString index="31">
            hintmask 00000000
            hintmask 11001000
            -80 callgsubr
            return
          </CharString>
          <CharString index="32">
            415 rmoveto
            -92 callsubr
            -66 vlineto
            -99 callsubr
            return
          </CharString>
          <CharString index="33">
            234 -108 120 -201 -55 callsubr
            return
          </CharString>
          <CharString index="34">
            -56 rmoveto
            -1 -5 -1 -4 -3 -27 66 14 -45 vvcurveto
            -31 -33 -4 -24 vhcurveto
            -38 -29 20 -16 hhcurveto
            -15 -4 -14 -12 -27 70 -16 45 50 65 11 78 65 -63 7 -22 hvcurveto
            -4 hlineto
            return
          </CharString>
          <CharString index="35">
            -32 callgsubr
            541 vlineto
            27 -51 330 -498 rlineto
            -9 6 10 -5 19 hhcurveto
            20 -102 callgsubr
            660 vlineto
            -100 callsubr
            -7 -103 callgsubr
            -535 vlineto
            -30 56 -319 482 rlineto
            14 -10 -10 5 -22 hhcurveto
            -21 -103 callgsubr
            return
          </CharString>
          <CharString index="36">
            48 vstem
            10 354 rmoveto
            -199 160 -160 199 199 161 160 199 199 -161 157 -199 -199 -160 -157 -199 vhcurveto
            48 hmoveto
            172 140 136 171 172 140 -136 -172 -171 -140 -140 -172 -171 -140 140 171 vhcurveto
            return
          </CharString>
          <CharString index="37">
            86 -89 callsubr
            366 vlineto
            43 33 48 27 45 hhcurveto
            65 37 -36 -61 hvcurveto
            -339 vlineto
            -95 callsubr
            347 vlineto
            101 -61 61 -102 -56 -58 -28 -47 -42 vhcurveto
            -61 callgsubr
            return
          </CharString>
          <CharString index="38">
            -9 hlineto
            -27 -13 -13 -19 -62 -12 -47 -22 -44 hvcurveto
            return
          </CharString>
          <CharString index="39">
            184 76 94 141 141 77 -94 -184 return
          </CharString>
          <CharString index="40">
            rmoveto
            -116 79 -22 50 -28 callsubr
            vhcurveto
            -38 callsubr
            return
          </CharString>
          <CharString index="41">
            59 hmoveto
            370 hlineto
            -68 callgsubr
            -275 hlineto
            292 389 rlineto
            1 2 1 3 5 vvcurveto
            18 -10 34 -10 vhcurveto
            -351 hlineto
            -77 callsubr
            256 hlineto
            -293 -389 rlineto
            -2 -3 -24 callgsubr
            -20 14 -31 8 vhcurveto
            return
          </CharString>
          <CharString index="42">
            hlineto
            -75 callgsubr
            return
          </CharString>
          <CharString index="43">
            rmoveto
            8 7 5 8 7 hvcurveto
            -79 callsubr
            -12 19 -21 16 vhcurveto
            endchar
          </CharString>
          <CharString index="44">
            -56 callgsubr
            hvcurveto
            -69 callsubr
            -60 callgsubr
            vhcurveto
            return
          </CharString>
          <CharString index="45">
            57 352 rmoveto
            -234 108 -124 200 return
          </CharString>
          <CharString index="46">
            vstem
            -46 callgsubr
            return
          </CharString>
          <CharString index="47">
            55 259 rmoveto
            -172 81 -93 151 return
          </CharString>
          <CharString index="48">
            25 -9 callsubr
            255 72 131 72 return
          </CharString>
          <CharString index="49">
            60 77 27 134 135 -75 29 -62 -66 -71 -29 -135 return
          </CharString>
          <CharString index="50">
            -65 callsubr
            -10 -54 callgsubr
          </CharString>
          <CharString index="51">
            2 rmoveto
            -5 9 -4 15 vhcurveto
            5 hlineto
            19 14 6 13 7 hvcurveto
            373 675 -28 callgsubr
            -9 4 -15 vhcurveto
            -5 hlineto
            -19 -14 -6 -13 -7 hvcurveto
            -373 -675 rlineto
            -13 callsubr
            return
          </CharString>
          <CharString index="52">
            -200 -108 -120 -234 return
          </CharString>
          <CharString index="53">
            31 13 29 26 40 vvcurveto
            69 -49 34 -69 -35 -68 -13 -18 -9 12 -21 7 vhcurveto
            10 21 19 52 hhcurveto
            56 13 -34 -22 -27 -17 -48 -60 hvcurveto
            -16 hlineto
            -8 -4 -6 -12 hvcurveto
            -6 vlineto
            -12 4 -6 8 vhcurveto
            return
          </CharString>
          <CharString index="54">
            -322 -116 224 hstem
            55 89 vstem
            21 -77 rmoveto
            -82 callsubr
            endchar
          </CharString>
          <CharString index="55">
            hlineto
            -34 -12 -6 -11 -5 3 -6 5 -7 hvcurveto
            return
          </CharString>
          <CharString index="56">
            -9 -18 -39 -17 -56 hhcurveto
            -113 -42 60 140 139 57 52 88 54 37 -16 -8 18 hvcurveto
            -2 6 3 -2 2 -12 callsubr
            24 -73 22 -77 -115 -122 -56 -209 return
          </CharString>
          <CharString index="57">
            -8 hvcurveto
            316 hlineto
            12 21 29 12 return
          </CharString>
          <CharString index="58">
            -100 -88 -38 -26 -11 21 -39 14 return
          </CharString>
          <CharString index="59">
            47 5 63 66 68 5 -63 -47 -47 -10 -59 -63 return
          </CharString>
          <CharString index="60">
            hlineto
            20 16 4 12 4 hvcurveto
            return
          </CharString>
          <CharString index="61">
            19 -21 704 -20 return
          </CharString>
          <CharString index="62">
            -13 -56 -50 -103 hhcurveto
            -157 -74 87 192 197 75 84 160 -30 callsubr
            -214 -110 -117 -239 return
          </CharString>
          <CharString index="63">
            rlineto
            4 7 4 6 5 vvcurveto
            12 -13 5 -33 return
          </CharString>
          <CharString index="64">
            101 79 40 24 11 -21 39 -14 return
          </CharString>
          <CharString index="65">
            97 -51 callgsubr
            return
          </CharString>
          <CharString index="66">
            hlineto
            -30 -13 -7 -10 -4 2 -6 1 return
          </CharString>
          <CharString index="67">
            52 43 -26 76 hhcurveto
            65 62 30 23 20 -16 12 -13 hvcurveto
            -13 -23 -11 -26 hhcurveto
            return
          </CharString>
          <CharString index="68">
            -21 9 -9 21 vhcurveto
            return
          </CharString>
          <CharString index="69">
            -9 -5 -5 -29 hhcurveto
            -29 -25 14 60 hvcurveto
            return
          </CharString>
          <CharString index="70">
            -12 4 16 -4 20 hhcurveto
            return
          </CharString>
          <CharString index="71">
            rlineto
            2 6 1 4 4 vvcurveto
            11 return
          </CharString>
          <CharString index="72">
            -6 72 161 72 158 72 return
          </CharString>
          <CharString index="73">
            rmoveto
            13 callsubr
            410 -26 callsubr
            -410 -37 callgsubr
            endchar
          </CharString>
          <CharString index="74">
            -6 72 391 72 return
          </CharString>
          <CharString index="75">
            4 -20 hhcurveto
            -8 -43 callgsubr
            return
          </CharString>
          <CharString index="76">
            211 -17 callgsubr
            return
          </CharString>
          <CharString index="77">
            hvcurveto
            96 48 -44 11 hhcurveto
            13 21 41 17 27 -92 35 -99 return
          </CharString>
          <CharString index="78">
            rmoveto
            -5 5 -2 9 vhcurveto
            13 hlineto
            14 9 5 12 7 hvcurveto
            return
          </CharString>
          <CharString index="79">
            27 46 3 27 8 -7 39 -14 return
          </CharString>
          <CharString index="80">
            19 -21 527 -20 return
          </CharString>
          <CharString index="81">
            hlineto
            20 10 10 20 hvcurveto
            13 -41 callgsubr
            return
          </CharString>
          <CharString index="82">
            hlineto
            14 6 8 21 hvcurveto
            4 vlineto
            21 -6 8 -14 vhcurveto
            return
          </CharString>
          <CharString index="83">
            12 hvcurveto
            7 vlineto
            12 -3 5 -8 vhcurveto
            return
          </CharString>
          <CharString index="84">
            20 10 11 19 hvcurveto
            return
          </CharString>
          <CharString index="85">
            hstem
            85 88 277 91 vstem
            85 -79 callgsubr
            return
          </CharString>
          <CharString index="86">
            192 -6 76 632 -20 return
          </CharString>
          <CharString index="87">
            hintmask 00000000
            hintmask 11010100
            return
          </CharString>
          <CharString index="88">
            84 hintmask 00000000
            return
          </CharString>
          <CharString index="89">
            10 -14 20 -15 vhcurveto
            return
          </CharString>
          <CharString index="90">
            rlineto
            -12 -7 -7 -9 -14 vvcurveto
            -6 vlineto
            -9 4 -5 5 2 4 1 3 4 vhcurveto
            return
          </CharString>
          <CharString index="91">
            326 rmoveto
            -14 49 -19 67 58 72 32 89 61 -38 36 -35 9 vhcurveto
            4 vlineto
            return
          </CharString>
          <CharString index="92">
            147 hstemhm
            return
          </CharString>
          <CharString index="93">
            -61 callgsubr
            endchar
          </CharString>
          <CharString index="94">
            -3 -4 -1 -4 -2 vvcurveto
            return
          </CharString>
          <CharString index="95">
            hhcurveto
            13 19 38 16 return
          </CharString>
          <CharString index="96">
            11 -16 7 vhcurveto
            -411 174 rlineto
            2 -5 -5 1 -5 hhcurveto
            -12 return
          </CharString>
          <CharString index="97">
            155 vlineto
            52 161 23 183 169 -137 27 -86 hvcurveto
            return
          </CharString>
          <CharString index="98">
            -6 73 -47 -21 return
          </CharString>
          <CharString index="99">
            26 -35 callgsubr
            85 -15 callsubr
            97 88 return
          </CharString>
          <CharString index="100">
            11 -16 7 vhcurveto
            -356 146 356 145 rlineto
            16 6 return
          </CharString>
          <CharString index="101">
            hlineto
            -100 callsubr
            -8 -103 callgsubr
            endchar
          </CharString>
          <CharString index="102">
            -12 3 17 -4 20 hhcurveto
            41 -12 callgsubr
            return
          </CharString>
          <CharString index="103">
            -1 callgsubr
            14 hlineto
            17 7 -78 callsubr
            789 return
          </CharString>
          <CharString index="104">
            rlineto
            -5 -7 -3 -6 return
          </CharString>
          <CharString index="105">
            -14 9 -8 21 vhcurveto
            return
          </CharString>
          <CharString index="106">
            76 228 76 return
          </CharString>
          <CharString index="107">
            hlineto
            -20 -16 return
          </CharString>
          <CharString index="108">
            rlineto
            5 13 callgsubr
            4 -2 5 -5 5 vhcurveto
            return
          </CharString>
          <CharString index="109">
            rlineto
            5 -5 -5 2 -4 hhcurveto
            -5 -4 -2 -5 -5 hvcurveto
            return
          </CharString>
          <CharString index="110">
            rmoveto
            -1 callgsubr
            10 hlineto
            17 7 -78 callsubr
            return
          </CharString>
          <CharString index="111">
            hlineto
            -90 callgsubr
            8 -94 callgsubr
            return
          </CharString>
          <CharString index="112">
            hlineto
            -90 callgsubr
            7 -94 callgsubr
            return
          </CharString>
          <CharString index="113">
            142 hstemhm
            return
          </CharString>
          <CharString index="114">
            -23 callsubr
            7 -41 callgsubr
            return
          </CharString>
          <CharString index="115">
            -75 callgsubr
            -20 -83 callsubr
            return
          </CharString>
          <CharString index="116">
            hstemhm
            12 589 return
          </CharString>
          <CharString index="117">
            hlineto
            34 12 6 11 5 -2 callgsubr
            return
          </CharString>
          <CharString index="118">
            -5 55 216 54 61 55 216 54 hstem
            return
          </CharString>
          <CharString index="119">
            19 -21 458 73 return
          </CharString>
          <CharString index="120">
            -20 11 -10 19 vhcurveto
            return
          </CharString>
          <CharString index="121">
            vlineto
            11 -6 5 -14 -14 -6 -5 -11 vhcurveto
            return
          </CharString>
          <CharString index="122">
            -270 -140 910 hstem
            96 58 vstem
            return
          </CharString>
          <CharString index="123">
            vlineto
            21 -9 9 -21 vhcurveto
            return
          </CharString>
          <CharString index="124">
            230 70 hstem
            return
          </CharString>
          <CharString index="125">
            -21 712 -20 hstem
            229 70 vstem
            return
          </CharString>
          <CharString index="126">
            vstem
            20 15 rmoveto
            -12 13 -5 33 vhcurveto
            return
          </CharString>
          <CharString index="127">
            117 90 45 27 12 -22 42 -13 return
          </CharString>
          <CharString index="128">
            605 147 hstem
            74 168 vstem
            return
          </CharString>
          <CharString index="129">
            230 rmoveto
            return
          </CharString>
          <CharString index="130">
            -9 8 hhcurveto
            16 6 45 4 27 return
          </CharString>
          <CharString index="131">
            30 callgsubr
            435 91 vstem
            return
          </CharString>
          <CharString index="132">
            hlineto
            -21 -9 -9 -21 hvcurveto
            endchar
          </CharString>
          <CharString index="133">
            -6 72 568 72 return
          </CharString>
          <CharString index="134">
            13 23 11 26 hhcurveto
            return
          </CharString>
          <CharString index="135">
            -11 6 8 -5 10 return
          </CharString>
          <CharString index="136">
            90 260 89 vstem
            return
          </CharString>
          <CharString index="137">
            61 393 hstem
            return
          </CharString>
          <CharString index="138">
            294 hlineto
            return
          </CharString>
        <CharString name=".notdef">
          480 endchar
        </CharString>
        <CharString name="A">
          -49 callgsubr
          hstem
          12 589 vstem
          -105 callgsubr
          endchar
        </CharString>
        <CharString name="AE">
          395 0 76 102 75 67 -1 callsubr
          hstem
          -11 834 vstem
          -11 15 rmoveto
          -11 9 -6 30 vhcurveto
          5 hlineto
          19 15 5 11 6 hvcurveto
          80 164 rlineto
          295 hlineto
          32 -149 rlineto
          -20 4 11 -9 21 hhcurveto
          287 -96 callsubr
          -244 hlineto
          -53 244 rlineto
          266 -96 callsubr
          -282 hlineto
          -50 228 rlineto
          362 -96 callsubr
          -445 hlineto
          -21 -13 -8 -19 -9 hvcurveto
          -321 -642 rlineto
          -3 -6 -1 -6 -4 vvcurveto
          203 238 rmoveto
          148 299 23 58 4 -58 64 -299 rlineto
          endchar
        </CharString>
        <CharString name="Aacute">
          -10 callgsubr
          -350 168 -99 callgsubr
          hintmask 00010100
          -150 531 -103 callsubr
        </CharString>
        <CharString name="Acircumflex">
          -49 callgsubr
          82 142 9 callsubr
          -415 242 -99 callgsubr
          hintmask 00010100
          -215 510 -107 callsubr
        </CharString>
        <CharString name="Adieresis">
          -49 callgsubr
          105 95 9 callsubr
          -408 84 60 84 -99 callgsubr
          hintmask 00010110
          -47 533 -101 callsubr
          -144 hmoveto
          -107 callgsubr
          endchar
        </CharString>
        <CharString name="Agrave">
          -10 callgsubr
          -395 168 -99 callgsubr
          hintmask 00010100
          -73 531 -100 callgsubr
        </CharString>
        <CharString name="Aring">
          -49 callgsubr
          62 35 99 35 9 callsubr
          -378 35 99 35 hintmask 00000000
          hintmask 11100100
          -105 callgsubr
          hintmask 00011011
          -117 490 -71 callgsubr
        </CharString>
        <CharString name="Atilde">
          -49 callgsubr
          113 -19 callgsubr
          12 589 -453 318 hintmask 00000000
          hintmask 11100010
          -105 callgsubr
          hintmask 00000000
          -193 561 rmoveto
          hintmask 00001001
          -55 callgsubr
          hintmask 00010001
          -18 callsubr
          hintmask 00000101
          -84 callgsubr
        </CharString>
        <CharString name="B">
          73 0 76 246 76 226 76 hstemhm
          97 88 254 91 -61 91 hintmask 00000000
          -42 callsubr
          172 hlineto
          168 93 62 139 132 -140 34 0 hvcurveto
          4 vlineto
          hintmask 11110100
          58 16 52 69 67 vvcurveto
          105 -75 72 -149 vhcurveto
          -179 hlineto
          -21 -9 -9 -21 hvcurveto
          88 -272 rmoveto
          226 112 vlineto
          100 42 -35 -74 -65 -57 -52 -81 hvcurveto
          -116 -322 rmoveto
          246 129 vlineto
          hintmask 11111000
          103 52 -44 -73 -79 -49 -50 -89 hvcurveto
          endchar
        </CharString>
        <CharString name="C">
          99 -17 callgsubr
          hstem
          57 91 vstem
          57 350 rmoveto
          -244 103 -112 219 20 callsubr
          vhcurveto
          -45 callsubr
          hvcurveto
          endchar
        </CharString>
        <CharString name="Ccedilla">
          99 -210 49 155 76 560 30 callgsubr
          227 71 vstem
          311 -73 callsubr
          12 43 rlineto
          10 hlineto
          20 callsubr
          hvcurveto
          -45 callsubr
          -224 86 -113 184 -16 hvcurveto
          endchar
        </CharString>
        <CharString name="D">
          175 28 callgsubr
          hstem
          97 88 362 91 vstem
          -42 callsubr
          202 hlineto
          172 137 90 260 259 -137 91 -172 hvcurveto
          -202 hlineto
          -21 -9 -9 -21 hvcurveto
          88 -594 rmoveto
          548 137 vlineto
          125 100 -75 -199 -200 -100 -74 -125 hvcurveto
          endchar
        </CharString>
        <CharString name="Delta">
          188 0 68 642 -20 hstemhm
          34 639 hintmask 00000000
          34 30 rmoveto
          -22 callgsubr
          579 hlineto
          20 10 11 19 14 -3 10 -5 13 hvcurveto
          -263 620 rlineto
          16 -7 -11 7 -17 hhcurveto
          -26 hlineto
          -17 -11 -7 -16 -7 hvcurveto
          -264 -620 rlineto
          -6 -14 -2 -9 -14 vvcurveto
          82 38 rmoveto
          hintmask 11100000
          234 551 rlineto
          5 hlineto
          232 -551 rlineto
          endchar
        </CharString>
        <CharString name="E">
          26 -35 callgsubr
          hstem
          97 88 vstem
          -98 callsubr
          endchar
        </CharString>
        <CharString name="Eacute">
          -8 callsubr
          57 168 -93 callsubr
          hintmask 00010100
          168 115 -103 callsubr
        </CharString>
        <CharString name="Ecircumflex">
          26 -35 callgsubr
          64 6 callsubr
          97 88 -8 242 -93 callsubr
          hintmask 00010100
          103 94 -107 callsubr
        </CharString>
        <CharString name="Edieresis">
          26 -35 callgsubr
          87 95 hstemhm
          97 88 -1 84 60 84 -93 callsubr
          hintmask 00010110
          271 117 -101 callsubr
          -144 hmoveto
          -107 callgsubr
          endchar
        </CharString>
        <CharString name="Egrave">
          -8 callsubr
          12 168 -93 callsubr
          hintmask 00010100
          245 115 -100 callgsubr
        </CharString>
        <CharString name="Eth">
          176 -35 callgsubr
          hstem
          85 88 377 91 vstem
          85 -51 callgsubr
          215 hlineto
          172 139 90 260 259 -139 91 -172 hvcurveto
          -215 hlineto
          -21 -9 -9 -21 hvcurveto
          -274 -65 vlineto
          -75 callgsubr
          -16 -83 callsubr
          65 hlineto
          88 -244 rmoveto
          244 110 vlineto
          -97 callsubr
          -110 228 150 hlineto
          125 102 -75 -199 -200 -102 -74 -125 hvcurveto
          endchar
        </CharString>
        <CharString name="Euro">
          80 -6 72 170 67 93 67 171 72 hstem
          69 89 vstem
          20 236 rmoveto
          55 hlineto
          -165 25 98 -77 165 hhcurveto
          105 82 45 27 11 -22 39 -13 hvcurveto
          -11 -54 -50 -95 hhcurveto
          -91 -75 49 121 -23 hvcurveto
          278 5 callsubr
          -286 hlineto
          -1 14 0 16 16 vvcurveto
          16 0 16 1 15 vhcurveto
          286 5 callsubr
          -278 hlineto
          124 23 69 47 105 86 44 -44 9 hhcurveto
          13 21 38 16 27 -82 35 -89 -153 -108 -80 -163 -27 hvcurveto
          -57 -65 callsubr
          -7 -83 callsubr
          49 hlineto
          -1 -15 0 -15 -16 vvcurveto
          -17 0 -15 1 -15 vhcurveto
          -49 -65 callsubr
          -7 -54 callgsubr
        </CharString>
        <CharString name="F">
          -17 19 -21 322 -1 callsubr
          -39 callgsubr
          300 239 vlineto
          -97 callsubr
          -239 228 257 -96 callsubr
          -315 25 callsubr
        </CharString>
        <CharString name="G">
          152 -6 76 215 76 269 30 callgsubr
          353 88 vstem
          57 344 rmoveto
          -238 110 -112 199 114 109 16 56 vhcurveto
          265 16 callsubr
          -175 1 callgsubr
          117 -202 hlineto
          -7 -27 -50 -6 -52 hhcurveto
          -178 -46 130 153 174 58 103 177 -30 callsubr
          -209 -115 -113 -249 hvcurveto
          endchar
        </CharString>
        <CharString name="H">
          213 19 -21 323 76 305 -20 hstem
          97 88 362 88 -61 callsubr
          301 362 -301 vlineto
          -77 callgsubr
          -283 -362 283 -92 callgsubr
          endchar
        </CharString>
        <CharString name="I">
          -20 callgsubr
          hstem
          97 88 vstem
          -80 callgsubr
          endchar
        </CharString>
        <CharString name="Iacute">
          -20 callgsubr
          103 -15 callsubr
          85 168 -156 88 -76 callsubr
          hintmask 00110000
          11 105 -103 callsubr
        </CharString>
        <CharString name="Icircumflex">
          -20 callgsubr
          82 6 callsubr
          20 242 -165 88 -76 callsubr
          hintmask 00110000
          -54 84 -107 callsubr
        </CharString>
        <CharString name="Idieresis">
          -20 callgsubr
          105 95 hstemhm
          27 84 -14 88 -14 84 -76 callsubr
          hintmask 00110100
          114 107 -101 callsubr
          -144 hmoveto
          -107 callgsubr
          endchar
        </CharString>
        <CharString name="Igrave">
          -20 callgsubr
          103 -15 callsubr
          40 168 -111 88 -76 callsubr
          hintmask 00110000
          88 105 -100 callgsubr
        </CharString>
        <CharString name="J">
          -118 -6 78 630 -20 hstem
          231 88 vstem
          6 26 rmoveto
          -27 63 -5 38 154 58 85 126 vhcurveto
          475 -92 callgsubr
          -485 vlineto
          -86 -41 -37 -99 vhcurveto
          -32 -23 9 -8 hhcurveto
          -16 -6 -51 -4 hvcurveto
          endchar
        </CharString>
        <CharString name="K">
          56 19 -21 335 41 328 -20 -39 callgsubr
          313 4 vlineto
          286 -322 rlineto
          -13 12 21 0 22 hhcurveto
          12 11 callgsubr
          -303 329 250 312 8 callgsubr
          -10 hlineto
          -22 -23 -3 -11 -9 hvcurveto
          -246 -314 rlineto
          -4 306 -6 callsubr
        </CharString>
        <CharString name="L">
          -36 0 76 626 -20 hstem
          97 88 vstem
          -42 callsubr
          333 -96 callsubr
          -275 604 -6 callsubr
        </CharString>
        <CharString name="Lslash">
          -34 0 76 626 -20 hstem
          85 88 vstem
          85 -51 callgsubr
          349 -96 callsubr
          -291 325 hlineto
          108 64 -16 callgsubr
          -108 -64 rlineto
          233 -92 callgsubr
          -286 vlineto
          -68 -40 -17 callsubr
          68 40 rlineto
          endchar
        </CharString>
        <CharString name="M">
          323 -13 callgsubr
          90 87 489 87 vstem
          -32 callgsubr
          544 vlineto
          204 -356 rlineto
          -9 5 7 -4 10 hhcurveto
          40 hlineto
          11 6 4 9 5 hvcurveto
          201 350 rlineto
          -538 vlineto
          -99 callsubr
          7 -102 callgsubr
          660 vlineto
          -100 callsubr
          -33 hlineto
          -24 -12 -7 -11 -6 hvcurveto
          -189 -334 -26 -57 -26 63 -189 328 rlineto
          11 -6 -12 7 -24 hhcurveto
          -36 -103 callgsubr
          endchar
        </CharString>
        <CharString name="N">
          199 -13 callgsubr
          90 87 365 87 vstem
          -72 callsubr
          endchar
        </CharString>
        <CharString name="Ntilde">
          199 -46 callsubr
          113 -19 callgsubr
          90 87 23 318 24 87 hintmask 00000000
          hintmask 11000101
          -72 callsubr
          hintmask 00000000
          193 135 -85 callsubr
        </CharString>
        <CharString name="O">
          211 -6 76 560 24 callsubr
          -101 callgsubr
          endchar
        </CharString>
        <CharString name="OE">
          501 -6 76 -70 76 244 -1 callsubr
          -70 76 hstemhm
          57 91 437 88 hintmask 00000000
          -62 callsubr
          96 73 28 56 51 vhcurveto
          hintmask 10101110
          -48 vlineto
          -39 callsubr
          353 -96 callsubr
          -295 244 264 -96 callsubr
          -264 228 294 -96 callsubr
          -352 hlineto
          -21 -9 -9 -21 hvcurveto
          hintmask 01110110
          -46 vlineto
          54 -51 -73 28 -96 hhcurveto
          hintmask 01101110
          -55 callsubr
          hvcurveto
          -89 callgsubr
          endchar
        </CharString>
        <CharString name="Oacute">
          -31 callsubr
          79 -15 callsubr
          57 91 161 168 106 -87 callgsubr
          -33 715 -103 callsubr
        </CharString>
        <CharString name="Ocircumflex">
          -31 callsubr
          58 6 callsubr
          57 91 96 242 97 -87 callgsubr
          -98 694 -107 callsubr
        </CharString>
        <CharString name="Odieresis">
          -31 callsubr
          81 95 hstemhm
          57 91 103 84 60 84 104 91 hintmask 00000000
          hintmask 11010010
          -101 callgsubr
          hintmask 00101100
          70 717 -101 callsubr
          -144 hmoveto
          -107 callgsubr
          endchar
        </CharString>
        <CharString name="Ograve">
          -31 callsubr
          79 -15 callsubr
          57 91 116 168 151 -87 callgsubr
          44 715 -100 callgsubr
        </CharString>
        <CharString name="Omega">
          211 0 68 562 24 callsubr
          41 30 rmoveto
          -78 callgsubr
          237 hlineto
          -90 callgsubr
          4 vlineto
          10 0 6 -7 2 vhcurveto
          -110 28 -53 95 177 vvcurveto
          -68 callsubr
          -177 -54 -95 -110 -28 vhcurveto
          -7 -2 0 -6 -10 vvcurveto
          -4 -83 callsubr
          237 4 callsubr
          -38 hlineto
          -59 -4 rlineto
          68 62 34 96 130 vvcurveto
          -74 callsubr
          -130 34 -96 67 -62 vhcurveto
          -59 4 rlineto
          -38 -65 callsubr
          endchar
        </CharString>
        <CharString name="Oslash">
          211 -6 76 -48 -21 629 76 -4 -20 hstemhm
          57 91 435 91 hintmask 00000000
          34 22 rmoveto
          -9 13 -12 9 4 5 3 6 5 vhcurveto
          hintmask 01101100
          67 74 rlineto
          -60 52 76 -30 100 hhcurveto
          -42 callgsubr
          109 -24 84 -45 59 hvcurveto
          58 64 rlineto
          4 13 callgsubr
          8 -13 12 -9 -5 -4 -2 -6 -5 vhcurveto
          hintmask 10011100
          -55 -61 rlineto
          48 -52 -71 25 -90 hhcurveto
          -55 callsubr
          -99 19 -78 37 -59 hvcurveto
          -73 -80 rlineto
          -4 -5 -2 -5 -4 vvcurveto
          hintmask 01101100
          143 165 rmoveto
          -19 44 -10 55 66 vvcurveto
          184 76 94 141 66 52 -21 -41 36 vhcurveto
          -322 -417 rmoveto
          346 385 rlineto
          26 -45 14 -62 -77 vvcurveto
          -184 -77 -98 -141 -75 -57 27 54 -36 vhcurveto
          endchar
        </CharString>
        <CharString name="Otilde">
          -31 callsubr
          89 -19 callgsubr
          57 91 58 318 59 91 hintmask 00000000
          hintmask 11000101
          -101 callgsubr
          hintmask 00000000
          -76 745 -85 callsubr
        </CharString>
        <CharString name="P">
          50 19 -21 300 76 250 76 -22 callsubr
          278 -10 callsubr
          -203 hlineto
          -21 -9 -9 -21 hvcurveto
          88 -296 -14 callgsubr
        </CharString>
        <CharString name="Q">
          211 630 24 callsubr
          246 6 rmoveto
          -12 29 355 -142 12 hhcurveto
          23 19 60 12 7 -5 5 -9 3 hvcurveto
          -197 62 rlineto
          4 vlineto
          130 35 71 117 190 vvcurveto
          234 -108 125 -201 -200 -108 -124 -235 -179 63 -112 126 -50 vhcurveto
          119 61 rmoveto
          -138 -79 98 182 183 79 100 138 139 79 -101 -182 -181 -79 -99 -139 hvcurveto
          endchar
        </CharString>
        <CharString name="R">
          90 19 -21 310 76 240 76 hstem
          97 88 260 91 -61 callsubr
          288 90 vlineto
          78 41 -20 -78 30 hvcurveto
          76 -196 rlineto
          -10 4 16 -6 20 hhcurveto
          10 hlineto
          29 13 6 10 3 -1 5 -2 6 hvcurveto
          -78 197 -26 66 -22 45 -42 14 rlinecurve
          4 vlineto
          70 28 45 55 86 vvcurveto
          126 -85 51 -156 vhcurveto
          -168 hlineto
          -21 -9 -9 -21 hvcurveto
          88 -286 rmoveto
          240 125 vlineto
          81 54 -36 -81 -66 -56 -57 -72 hvcurveto
          endchar
        </CharString>
        <CharString name="S">
          -20 -17 callgsubr
          hstem
          50 91 234 91 vstem
          -67 callgsubr
          endchar
        </CharString>
        <CharString name="Scaron">
          -20 -17 callgsubr
          56 6 callsubr
          50 91 -4 242 -4 91 -20 callsubr
          -67 callgsubr
          hintmask 00101000
          208 695 -94 callsubr
        </CharString>
        <CharString name="T">
          29 19 -21 626 76 hstem
          232 88 vstem
          232 -79 callgsubr
          604 189 vlineto
          -97 callsubr
          -469 1 callgsubr
          192 hlineto
          endchar
        </CharString>
        <CharString name="Thorn">
          47 19 -21 178 76 250 76 124 -20 -22 callsubr
          156 -10 callsubr
          -145 102 hlineto
          -100 callsubr
          -8 -103 callgsubr
          88 -428 -14 callgsubr
        </CharString>
        <CharString name="U">
          -21 callsubr
          hstem
          83 88 370 88 vstem
          -93 callgsubr
          endchar
        </CharString>
        <CharString name="Uacute">
          5 callgsubr
          129 168 73 -84 callsubr
          240 105 -103 callsubr
        </CharString>
        <CharString name="Ucircumflex">
          -21 callsubr
          82 6 callsubr
          83 88 64 242 64 -84 callsubr
          175 84 -107 callsubr
        </CharString>
        <CharString name="Udieresis">
          -21 callsubr
          105 95 hstemhm
          83 88 71 84 60 84 71 88 hintmask 00000000
          hintmask 11010010
          -93 callgsubr
          hintmask 00101100
          343 107 -101 callsubr
          -144 hmoveto
          -107 callgsubr
          endchar
        </CharString>
        <CharString name="Ugrave">
          5 callgsubr
          84 168 118 -84 callsubr
          317 105 -100 callgsubr
        </CharString>
        <CharString name="V">
          97 -13 callgsubr
          21 575 vstem
          253 14 rmoveto
          -37 callsubr
          31 -47 callsubr
          229 657 -44 callgsubr
          vhcurveto
          -6 0 callsubr
          -4 -12 -4 hvcurveto
          -185 -533 -13 -53 -11 52 -185 534 -47 callgsubr
          -9 hlineto
          -30 -13 -7 -10 -4 1 -4 2 -5 hvcurveto
          endchar
        </CharString>
        <CharString name="W">
          362 -46 callsubr
          hstemhm
          15 852 hintmask 00000000
          189 14 rmoveto
          -5 callsubr
          109 407 21 130 21 -130 109 -407 rlineto
          -5 callsubr
          173 657 rlineto
          1 4 2 8 2 vvcurveto
          11 -13 6 -30 vhcurveto
          -6 hlineto
          -20 -17 -4 -12 -3 hvcurveto
          hintmask 11100000
          -145 -585 rlineto
          0 -8 57 -9 35 vhcurveto
          -124 492 rlineto
          13 -3 -16 4 -20 hhcurveto
          -16 0 callsubr
          -4 -13 -3 hvcurveto
          -145 -584 -1 3 -10 63 -7 27 rlinecurve
          -127 492 rlineto
          12 -3 -17 4 -20 hhcurveto
          -10 -41 callsubr
          -4 hvcurveto
          endchar
        </CharString>
        <CharString name="X">
          91 -13 callgsubr
          20 572 19 callsubr
          8 hlineto
          18 18 3 11 7 hvcurveto
          186 276 184 -275 rlineto
          -12 8 14 -3 21 hhcurveto
          16 10 callsubr
          -225 337 200 297 -44 callsubr
          vhcurveto
          -6 hlineto
          -18 -18 -3 -11 -7 hvcurveto
          -165 -242 -160 241 rlineto
          12 -8 -14 3 -21 hhcurveto
          -14 -52 callsubr
          200 -302 -224 -332 -3 callsubr
          -5 vvcurveto
          endchar
        </CharString>
        <CharString name="Y">
          39 -13 callgsubr
          235 88 vstem
          -86 callgsubr
          endchar
        </CharString>
        <CharString name="Yacute">
          39 -46 callsubr
          103 -15 callsubr
          223 168 -156 88 hintmask 00000000
          hintmask 11001000
          -86 callgsubr
          hintmask 00110000
          11 426 -103 callsubr
        </CharString>
        <CharString name="Ydieresis">
          39 -46 callsubr
          105 95 hstemhm
          165 84 -14 88 -14 12 callgsubr
          -86 callgsubr
          hintmask 00110100
          114 428 -101 callsubr
          -144 hmoveto
          -107 callgsubr
          endchar
        </CharString>
        <CharString name="Z">
          96 28 callgsubr
          hstem
          38 533 vstem
          -66 callgsubr
          endchar
        </CharString>
        <CharString name="Zcaron">
          96 28 callgsubr
          63 6 callsubr
          38 533 -384 242 26 callgsubr
          -66 callgsubr
          hintmask 00101000
          233 763 -94 callsubr
        </CharString>
        <CharString name="a">
          -106 callgsubr
          endchar
        </CharString>
        <CharString name="aacute">
          -106 callgsubr
          hintmask 10111100
          96 456 -103 callsubr
        </CharString>
        <CharString name="acircumflex">
          -106 callgsubr
          hintmask 10111100
          31 435 -107 callsubr
        </CharString>
        <CharString name="acute">
          21 callsubr
          97 605 -103 callsubr
        </CharString>
        <CharString name="adieresis">
          -106 callgsubr
          hintmask 10111100
          199 458 -101 callsubr
          -144 hmoveto
          -107 callgsubr
          endchar
        </CharString>
        <CharString name="ae">
          309 -6 72 175 72 144 72 hstem
          45 90 200 29 callsubr
          45 144 rmoveto
          -103 74 -47 97 78 62 29 34 41 vhcurveto
          -42 40 61 -21 82 hhcurveto
          -43 callsubr
          hvcurveto
          -10 -49 -42 -87 hhcurveto
          -99 -47 54 121 -50 callsubr
          160 -69 87 -137 -63 -51 -16 -32 -38 hvcurveto
          31 -34 -52 17 -66 hhcurveto
          -49 callsubr
          hvcurveto
          10 55 42 91 hhcurveto
          54 30 -17 -24 15 hvcurveto
          -15 -29 -9 -35 -4 -40 rrcurveto
          -143 -4 -150 -21 -143 vvcurveto
          380 169 rmoveto
          95 7 46 49 87 hhcurveto
          80 40 -49 -95 hvcurveto
          -550 -164 rmoveto
          78 104 11 96 2 vhcurveto
          1 -47 8 -41 14 -33 rrcurveto
          -29 -36 -41 -23 -61 hhcurveto
          -56 -29 29 53 hvcurveto
          endchar
        </CharString>
        <CharString name="agrave">
          -106 callgsubr
          hintmask 10111100
          173 456 -100 callgsubr
        </CharString>
        <CharString name="ampersand">
          104 -6 72 270 72 226 72 hstemhm
          50 87 -64 84 252 -19 callsubr
          50 203 rmoveto
          -154 124 -55 99 74 56 23 20 33 vhcurveto
          -35 28 43 -8 31 hhcurveto
          -28 callsubr
          hvcurveto
          -38 callsubr
          196 -36 callgsubr
          -118 hlineto
          hintmask 11110100
          -97 -37 71 50 37 16 68 104 hvcurveto
          32 21 23 callsubr
          -52 5 -33 -116 -86 -55 -113 -74 47 -51 56 -22 hvcurveto
          -4 vlineto
          hintmask 11101100
          -60 -16 -66 -63 -105 vvcurveto
          87 1 rmoveto
          102 60 30 90 vhcurveto
          122 -204 hlineto
          -11 1 -9 1 -9 vhcurveto
          -17 -31 -50 -20 -49 hhcurveto
          -60 -84 29 109 hvcurveto
          endchar
        </CharString>
        <CharString name="approxequal">
          27 99 74 -48 74 64 10 callgsubr
          278 rmoveto
          27 callsubr
          hintmask 10011000
          -40 callgsubr
          28 callsubr
          hhcurveto
          hintmask 10011000
          -24 -148 rmoveto
          28 callsubr
          27 callsubr
          hintmask 01101000
          -40 callgsubr
          endchar
        </CharString>
        <CharString name="aring">
          -106 callgsubr
          hintmask 10111100
          129 415 -71 callgsubr
        </CharString>
        <CharString name="arrowdown">
          9 19 18 callsubr
          229 20 rmoveto
          -2 callsubr
          10 hlineto
          21 9 -78 callsubr
          564 vlineto
          209 -213 rlineto
          -6 6 5 -4 3 hhcurveto
          5 2 7 12 hvcurveto
          55 vlineto
          14 -4 10 -10 10 vhcurveto
          -233 234 rlineto
          5 -5 -4 2 -7 hhcurveto
          -4 hlineto
          -7 -4 -2 -5 -5 hvcurveto
          -232 -233 rlineto
          -10 -10 -4 -10 -14 vvcurveto
          -55 vlineto
          -12 2 -7 5 3 5 4 6 6 vhcurveto
          208 212 rlineto
          endchar
        </CharString>
        <CharString name="arrowleft">
          230 22 -21 17 callsubr
          0 751 vstem
          241 15 rmoveto
          -10 10 10 -4 14 hhcurveto
          55 hlineto
          12 7 2 5 3 -4 5 -6 6 hvcurveto
          -213 209 rlineto
          603 hlineto
          14 8 9 21 hvcurveto
          10 vlineto
          21 -8 9 -14 vhcurveto
          -603 hlineto
          212 208 rlineto
          6 6 4 5 3 vvcurveto
          5 -7 2 -12 vhcurveto
          -55 hlineto
          -14 -10 -4 -10 -10 hvcurveto
          -233 -232 rlineto
          -5 -5 -2 -4 -7 vvcurveto
          -4 vlineto
          -7 2 -4 5 -5 vhcurveto
          endchar
        </CharString>
        <CharString name="arrowright">
          230 22 -21 229 70 hstem
          0 750 vstem
          22 22 callsubr
          602 hlineto
          -212 -208 rlineto
          -6 -6 -4 -5 -3 vvcurveto
          -5 7 -2 12 vhcurveto
          55 hlineto
          14 10 4 10 10 hvcurveto
          233 232 rlineto
          5 5 2 4 7 vvcurveto
          4 vlineto
          7 -2 4 -5 5 vhcurveto
          -234 233 rlineto
          10 -10 -10 4 -14 hhcurveto
          -55 hlineto
          -12 -7 -2 -5 -3 4 -5 6 -6 hvcurveto
          213 -209 rlineto
          -602 hlineto
          -14 -8 -9 -21 hvcurveto
          -10 vlineto
          -21 8 -9 14 vhcurveto
          endchar
        </CharString>
        <CharString name="arrowup">
          9 17 18 callsubr
          13 237 rmoveto
          233 -234 rlineto
          -5 5 4 -2 7 hhcurveto
          4 hlineto
          7 4 2 5 5 hvcurveto
          232 233 rlineto
          10 10 4 10 14 vvcurveto
          55 vlineto
          12 -2 7 -5 -3 -5 -4 -6 -6 vhcurveto
          -208 -212 rlineto
          564 vlineto
          24 callgsubr
          -9 -8 -14 hvcurveto
          -564 vlineto
          -209 213 rlineto
          6 -6 -5 4 -3 hhcurveto
          -5 -2 -7 -12 hvcurveto
          -55 vlineto
          -14 4 -10 10 -10 vhcurveto
          endchar
        </CharString>
        <CharString name="asciicircum">
          -70 320 364 hstem
          53 344 vstem
          80 320 rmoveto
          4 hlineto
          17 10 7 16 7 hvcurveto
          107 261 106 -261 rlineto
          -16 6 12 -7 17 hhcurveto
          4 hlineto
          17 10 8 13 4 -1 5 -2 5 hvcurveto
          -125 309 rlineto
          16 -7 -10 4 -17 hhcurveto
          -20 hlineto
          -17 -11 -4 -16 -6 hvcurveto
          -125 -309 rlineto
          -2 -5 -1 -5 -4 vvcurveto
          -13 10 -8 17 vhcurveto
          endchar
        </CharString>
        <CharString name="asciitilde">
          27 215 10 callgsubr
          22 callsubr
          27 callsubr
          hintmask 01100000
          -40 callsubr
          hintmask 10100000
          -31 callgsubr
          28 callsubr
          hhcurveto
          endchar
        </CharString>
        <CharString name="asterisk">
          -147 414 295 hstem
          161 40 vstem
          93 414 rmoveto
          5 5 3 6 5 hvcurveto
          73 101 73 -101 rlineto
          -6 4 5 -3 6 hhcurveto
          9 13 11 9 4 -2 4 -3 5 hvcurveto
          -72 99 99 32 rlineto
          10 3 4 5 8 vvcurveto
          15 -10 8 -8 -3 -3 0 -1 -3 vhcurveto
          -99 -32 rlineto
          105 vlineto
          14 -6 6 -14 -14 -6 -6 -14 vhcurveto
          -105 vlineto
          -99 32 rlineto
          1 -3 -3 0 -3 hhcurveto
          -9 -9 -9 -15 -7 4 -5 10 -3 hvcurveto
          98 -32 -71 -99 rlineto
          -4 -5 -24 callgsubr
          -6 3 -5 6 -4 vhcurveto
          -4 5 4 -1 4 hhcurveto
          endchar
        </CharString>
        <CharString name="at">
          454 -126 44 136 53 -53 61 328 62 -24 21 159 44 hstemhm
          84 54 140 73 207 72 183 54 hintmask 0000000000000000
          84 237 rmoveto
          -216 132 -147 194 51 117 11 39 16 -5 7 -9 vhcurveto
          -24 -33 -29 -97 hhcurveto
          -162 -110 129 190 238 174 186 222 167 112 -112 -169 -145 -69 -128 -74 -10 -30 0 42 hvcurveto
          hintmask 1101011111000000
          24 33 308 0 vhcurveto
          13 -6 8 -16 vhcurveto
          -6 hlineto
          -25 1 -15 -29 -11 hvcurveto
          hintmask 1100111111000000
          18 -18 -38 29 -55 hhcurveto
          -128 -83 -112 -157 -147 88 -35 57 51 49 26 64 35 hvcurveto
          -7 vlineto
          hintmask 1011011111000000
          -44 2 34 -39 63 hhcurveto
          124 86 144 182 196 -132 129 -201 -253 -197 -205 -263 hvcurveto
          hintmask 1101011111000000
          267 4 rmoveto
          101 29 101 115 44 31 -20 -14 17 vhcurveto
          -7 -23 -7 -79 -5 -51 rrcurveto
          -110 -36 -55 -31 -38 hhcurveto
          -48 -40 30 96 hvcurveto
          endchar
        </CharString>
        <CharString name="atilde">
          -59 callsubr
          86 73 -53 73 hstemhm
          49 90 -30 318 -46 84 hintmask 0000000000000000
          -70 callgsubr
          hintmask 1011001010000000
          -96 callgsubr
          hintmask 0111001010000000
          -91 callgsubr
          hintmask 1011001010000000
          53 486 rmoveto
          hintmask 0000000000000000
          -55 callgsubr
          hintmask 0000010100000000
          -18 callsubr
          hintmask 0000100100000000
          -84 callgsubr
        </CharString>
        <CharString name="b">
          49 19 -21 457 74 hstemhm
          85 84 258 88 hintmask 00000000
          85 20 rmoveto
          -2 callsubr
          4 hlineto
          14 9 3 9 4 hvcurveto
          hintmask 11110000
          0 9 24 7 35 vhcurveto
          -51 49 53 -24 57 hhcurveto
          120 74 112 152 hvcurveto
          9 vlineto
          168 -84 94 -119 -62 -42 -21 -30 -39 vhcurveto
          252 vlineto
          -106 callsubr
          84 -594 rmoveto
          274 vlineto
          30 36 42 15 43 hhcurveto
          6 hlineto
          86 -2 45 -65 -119 vvcurveto
          -129 -44 -73 -79 -44 -50 24 45 -41 vhcurveto
          endchar
        </CharString>
        <CharString name="backslash">
          -159 702 -20 hstem
          5 352 vstem
          294 3 rmoveto
          -16 7 9 -7 17 hhcurveto
          4 hlineto
          17 9 8 12 5 -1 5 -2 5 hvcurveto
          -286 664 rlineto
          16 -7 -11 7 -17 hhcurveto
          -4 hlineto
          -17 -7 -8 -12 -5 1 -5 2 -5 hvcurveto
          endchar
        </CharString>
        <CharString name="bar">
          15 callsubr
          96 -118 3 callsubr
          866 -25 callgsubr
          endchar
        </CharString>
        <CharString name="braceleft">
          20 callgsubr
          96 72 vstem
          96 -22 rmoveto
          -97 52 -19 26 vhcurveto
          50 -25 callsubr
          -22 hlineto
          -28 -6 23 39 hvcurveto
          175 vlineto
          101 -63 45 -15 7 vhcurveto
          17 12 61 45 98 vvcurveto
          176 vlineto
          39 6 22 28 vhcurveto
          22 -25 callsubr
          -50 hlineto
          -26 -52 -21 -95 hvcurveto
          -167 vlineto
          -67 -7 -42 -44 -20 vhcurveto
          -16 -7 -9 -9 -18 vvcurveto
          -14 vlineto
          -18 9 -9 16 -7 vhcurveto
          44 -20 7 -43 -66 vvcurveto
          endchar
        </CharString>
        <CharString name="braceright">
          20 callgsubr
          106 72 vstem
          50 -76 rmoveto
          -21 callgsubr
          50 hlineto
          26 52 19 97 hvcurveto
          167 vlineto
          66 7 43 44 20 vhcurveto
          16 7 9 9 18 vvcurveto
          14 vlineto
          18 -9 9 -16 7 vhcurveto
          -44 20 -7 42 67 vvcurveto
          167 vlineto
          95 -52 21 -26 vhcurveto
          -50 hlineto
          -21 callgsubr
          22 hlineto
          28 6 -22 -39 hvcurveto
          -176 vlineto
          -98 61 -45 17 -12 vhcurveto
          -15 -7 -63 -45 -101 vvcurveto
          -175 vlineto
          -39 -6 -23 -28 vhcurveto
          endchar
        </CharString>
        <CharString name="bracketleft">
          18 callgsubr
          90 74 vstem
          90 -108 rmoveto
          -39 callsubr
          121 -25 callsubr
          -77 781 77 hlineto
          14 6 8 21 hvcurveto
          5 vlineto
          21 -6 8 -14 vhcurveto
          -121 25 callsubr
        </CharString>
        <CharString name="bracketright">
          18 callgsubr
          127 74 vstem
          50 -76 rmoveto
          -21 callgsubr
          121 hlineto
          21 9 9 21 hvcurveto
          846 16 callsubr
          -121 hlineto
          -14 -6 -8 -21 hvcurveto
          -5 vlineto
          -21 6 -8 14 vhcurveto
          77 -781 hlineto
          endchar
        </CharString>
        <CharString name="breve">
          585 66 hstem
          13 289 vstem
          158 585 rmoveto
          71 73 38 77 10 -4 5 -11 -17 3 -9 -16 -8 hvcurveto
          -28 -15 -43 -11 -49 hhcurveto
          -49 -44 11 28 -15 hvcurveto
          16 -8 3 9 -17 hhcurveto
          -11 -4 -5 -10 -77 73 -38 72 hvcurveto
          endchar
        </CharString>
        <CharString name="brokenbar">
          15 callsubr
          120 403 rmoveto
          10 hlineto
          17 7 -78 callsubr
          323 -25 callgsubr
          -323 vlineto
          -1 callgsubr
          -24 -521 3 callsubr
          322 -25 callgsubr
          endchar
        </CharString>
        <CharString name="bullet">
          -184 201 251 hstem
          42 251 vstem
          167 201 rmoveto
          70 56 55 70 70 -56 56 -70 -70 -55 -56 -70 -70 55 -55 70 hvcurveto
          endchar
        </CharString>
        <CharString name="c">
          -35 -33 callsubr
          hstem
          52 90 vstem
          52 264 rmoveto
          -193 84 -77 162 6 callgsubr
          vhcurveto
          -51 callsubr
          hvcurveto
          endchar
        </CharString>
        <CharString name="caron">
          582 142 hstem
          35 242 vstem
          143 582 -94 callsubr
        </CharString>
        <CharString name="ccedilla">
          -35 -210 49 155 72 391 72 hstem
          52 90 158 71 vstem
          236 -73 callsubr
          12 43 rlineto
          4 hlineto
          6 callgsubr
          hvcurveto
          -51 callsubr
          -174 68 -80 132 -13 hvcurveto
          endchar
        </CharString>
        <CharString name="cedilla">
          -210 49 hstem
          204 71 vstem
          140 -73 callsubr
          14 49 rlineto
          -43 hlineto
          endchar
        </CharString>
        <CharString name="cent">
          -34 16 -21 533 -20 hstemhm
          55 89 125 40 hintmask 00000000
          269 -5 rmoveto
          hintmask 11110000
          -54 15 callgsubr
          53 vlineto
          79 3 62 26 22 vvcurveto
          14 -20 37 -14 -7 -38 -26 -4 -62 vhcurveto
          390 vlineto
          -5 55 32 -22 6 -12 callsubr
          21 -58 21 -67 3 hvcurveto
          39 14 callsubr
          -39 vlineto
          -108 -6 -106 -60 -198 vvcurveto
          -182 72 -79 142 -8 vhcurveto
          72 vmoveto
          -91 10 -34 60 129 vvcurveto
          130 49 53 76 7 vhcurveto
          endchar
        </CharString>
        <CharString name="circumflex">
          584 142 hstem
          36 242 vstem
          59 584 -107 callsubr
        </CharString>
        <CharString name="colon">
          -322 -2 110 307 29 callgsubr
          vstem
          91 -75 callsubr
          -40 -395 -88 callgsubr
          endchar
        </CharString>
        <CharString name="comma">
          -53 callsubr
        </CharString>
        <CharString name="copyright">
          219 -5 48 94 45 335 45 100 48 hstem
          10 48 135 54 434 -71 callsubr
          135 -5 rmoveto
          -145 62 -67 130 70 54 27 16 7 -13 25 -8 vhcurveto
          -8 -33 -30 -62 hhcurveto
          -93 -45 52 115 117 45 51 96 hvcurveto
          57 29 -27 6 hhcurveto
          8 13 25 10 16 -55 21 -59 -128 -66 -70 -143 hvcurveto
          endchar
        </CharString>
        <CharString name="currency">
          14 145 61 233 61 hstem
          86 61 233 61 vstem
          113 143 rmoveto
          7 7 3 7 7 hvcurveto
          25 25 rlineto
          -21 29 36 -12 39 hhcurveto
          39 35 12 21 30 hvcurveto
          24 -24 rlineto
          -8 7 7 -3 7 hhcurveto
          14 15 17 12 7 -4 7 -7 7 hvcurveto
          -24 24 rlineto
          22 29 13 36 40 vvcurveto
          39 -13 36 -22 29 vhcurveto
          24 24 rlineto
          8 8 3 7 7 vvcurveto
          13 -18 15 -12 -7 -7 -4 -6 -6 vhcurveto
          -24 -24 rlineto
          21 -29 -36 13 -39 hhcurveto
          -39 -36 -13 -22 -30 hvcurveto
          -24 24 rlineto
          8 -7 -8 4 -7 hhcurveto
          -14 -12 -18 -11 -8 3 -7 7 -7 hvcurveto
          24 -23 rlineto
          -22 -30 -12 -36 -39 vvcurveto
          -40 12 -36 22 -29 vhcurveto
          -24 -24 rlineto
          -7 -7 -4 -8 -7 vvcurveto
          -13 14 -15 14 vhcurveto
          150 63 rmoveto
          -64 -52 52 64 64 52 53 64 64 53 -53 -64 -64 -53 -52 -64 hvcurveto
          endchar
        </CharString>
        <CharString name="d">
          45 -9 callsubr
          456 74 hstemhm
          52 88 258 -19 callsubr
          246 -6 rmoveto
          57 53 24 51 49 hvcurveto
          hintmask 10111000
          -91 callsubr
          582 vlineto
          -106 callsubr
          -252 vlineto
          30 -39 -42 21 -62 hhcurveto
          -119 -84 -94 -168 hvcurveto
          -9 vlineto
          hintmask 01111000
          -152 74 -112 120 vhcurveto
          17 73 rmoveto
          -79 -44 73 129 119 45 65 86 2 hvcurveto
          6 hlineto
          43 42 -15 -30 36 hvcurveto
          -274 vlineto
          -45 -41 -50 -24 -44 hhcurveto
          endchar
        </CharString>
        <CharString name="dagger">
          15 422 19 callgsubr
          227 -118 rmoveto
          21 callgsubr
          540 157 vlineto
          -5 callgsubr
          178 hlineto
          14 -12 8 -28 -30 -12 -8 -14 vhcurveto
          -178 -158 vlineto
          8 callsubr
          158 hlineto
          endchar
        </CharString>
        <CharString name="daggerdbl">
          15 60 80 282 19 callgsubr
          69 60 rmoveto
          158 -178 hlineto
          21 callgsubr
          178 157 vlineto
          -5 callgsubr
          282 157 hlineto
          -5 callgsubr
          178 hlineto
          14 -12 8 -28 -30 -12 -8 -14 vhcurveto
          -178 -158 vlineto
          8 callsubr
          158 -282 -158 hlineto
          8 callsubr
          endchar
        </CharString>
        <CharString name="degree">
          -175 441 45 175 45 hstem
          38 49 167 49 vstem
          170 441 rmoveto
          73 60 59 73 73 -60 60 -73 -73 -59 -60 -73 -73 59 -59 73 hvcurveto
          45 vmoveto
          -46 -37 39 48 48 37 40 46 46 38 -40 -48 -48 -38 -39 -46 hvcurveto
          endchar
        </CharString>
        <CharString name="dieresis">
          607 95 hstem
          47 84 60 84 vstem
          231 607 -101 callsubr
          -144 hmoveto
          -107 callgsubr
          endchar
        </CharString>
        <CharString name="divide">
          40 -2 95 104 67 104 95 hstem
          238 84 cntrmask 11100000
          238 390 rmoveto
          -14 12 -8 28 vhcurveto
          -105 callsubr
          -160 -244 -34 callgsubr
          160 -177 rmoveto
          -14 12 -8 28 vhcurveto
          -105 callsubr
          endchar
        </CharString>
        <CharString name="dollar">
          -24 15 -21 708 -20 hstemhm
          48 91 94 40 100 91 hintmask 00000000
          35 67 rmoveto
          -27 85 -43 113 -3 vhcurveto
          hintmask 11111000
          -49 15 callgsubr
          50 vlineto
          117 10 74 72 114 vvcurveto
          138 -102 36 -89 32 vhcurveto
          233 vlineto
          -2 75 36 -36 15 hhcurveto
          10 22 38 15 33 -101 23 -57 1 hvcurveto
          40 14 callsubr
          -42 vlineto
          -113 -12 -72 -68 -98 vvcurveto
          -129 97 -35 88 -34 vhcurveto
          -258 vlineto
          3 -97 -54 52 -12 hhcurveto
          -11 -24 -38 -16 hvcurveto
          198 345 rmoveto
          -53 22 -41 27 57 vvcurveto
          63 37 36 57 10 vhcurveto
          40 -558 rmoveto
          239 vlineto
          55 -24 45 -30 -63 vvcurveto
          -65 -41 -46 -59 -11 vhcurveto
          endchar
        </CharString>
        <CharString name="dotaccent">
          607 95 hstem
          120 84 vstem
          160 607 -101 callsubr
          endchar
        </CharString>
        <CharString name="dotlessi">
          -30 callgsubr
          hstem
          91 84 vstem
          -80 callsubr
          endchar
        </CharString>
        <CharString name="e">
          19 -35 callsubr
          hstem
          55 29 callsubr
          -95 callgsubr
          endchar
        </CharString>
        <CharString name="eacute">
          -7 callgsubr
          84 168 8 -87 callsubr
          -153 306 -103 callsubr
        </CharString>
        <CharString name="ecircumflex">
          19 -35 callsubr
          55 6 callsubr
          55 90 19 242 -1 -87 callsubr
          -218 285 -107 callsubr
        </CharString>
        <CharString name="edieresis">
          19 -35 callsubr
          78 95 hstemhm
          55 90 26 84 60 84 6 89 hintmask 00000000
          hintmask 11101001
          -95 callgsubr
          hintmask 00010110
          -50 308 -101 callsubr
          -144 hmoveto
          -107 callgsubr
          endchar
        </CharString>
        <CharString name="egrave">
          -7 callgsubr
          39 168 53 -87 callsubr
          -76 306 -100 callgsubr
        </CharString>
        <CharString name="eight">
          15 26 callsubr
          hstemhm
          51 86 -58 84 214 84 -63 86 hintmask 00000000
          51 202 rmoveto
          -143 96 -65 120 120 97 65 143 109 -55 41 -65 29 vhcurveto
          hintmask 11100100
          54 25 43 45 82 vvcurveto
          114 -87 59 -105 -105 -85 -59 -114 -76 36 -49 47 -28 vhcurveto
          hintmask 11011000
          -61 -29 -50 -43 -106 vvcurveto
          hintmask 11100100
          240 206 rmoveto
          -68 23 -60 22 80 vvcurveto
          71 47 30 59 59 49 -30 -71 -59 -38 -38 -48 -28 vhcurveto
          hintmask 11011000
          -154 -206 rmoveto
          77 41 41 51 30 vhcurveto
          81 -31 88 -16 -101 vvcurveto
          -91 -60 -45 -71 -71 -59 45 91 vhcurveto
          endchar
        </CharString>
        <CharString name="ellipsis">
          97 -2 29 callgsubr
          112 97 111 97 vstem
          468 20 -88 callgsubr
          -208 -66 -88 callgsubr
          -209 -66 -88 callgsubr
          endchar
        </CharString>
        <CharString name="emdash">
          480 17 callsubr
          0 1000 vstem
          20 22 callsubr
          960 hlineto
          -90 callgsubr
          10 -94 callgsubr
          -960 -57 callsubr
        </CharString>
        <CharString name="endash">
          -20 17 callsubr
          0 500 vstem
          20 22 callsubr
          460 hlineto
          -90 callgsubr
          10 -94 callgsubr
          -460 -57 callsubr
        </CharString>
        <CharString name="equal">
          14 callgsubr
          78 271 -34 callgsubr
          -164 vmoveto
          404 16 callgsubr
          8 -41 callgsubr
          -404 -37 callgsubr
          -8 vlineto
          -22 callgsubr
          endchar
        </CharString>
        <CharString name="eth">
          -27 callgsubr
          66 50 -23 49 31 12 hstemhm
          55 86 286 87 hintmask 00000000
          -74 callgsubr
          130 -47 124 -67 105 vhcurveto
          60 8 rlineto
          10 1 5 5 7 vvcurveto
          5 -6 27 -19 -1 -1 0 -11 -76 vhcurveto
          -18 25 -15 17 0 vvcurveto
          7 -6 -8 5 -12 hhcurveto
          -31 -12 -5 -11 hvcurveto
          hintmask 11011110
          -10 11 -16 15 -22 vhcurveto
          -72 -10 rlineto
          -10 -2 -5 -4 -7 vvcurveto
          -14 12 -18 14 2 2 1 11 82 vhcurveto
          15 -26 16 -31 15 -33 rrcurveto
          8 -24 -27 4 -29 hhcurveto
          hintmask 11101110
          -33 callgsubr
          hvcurveto
          229 -193 rmoveto
          -98 -45 -23 callgsubr
          46 -64 callgsubr
          endchar
        </CharString>
        <CharString name="exclam">
          -226 -2 110 594 -20 hstemhm
          112 72 hintmask 00000000
          142 202 rmoveto
          11 hlineto
          21 9 8 14 1 hvcurveto
          27 456 rlineto
          14 -11 8 -28 vhcurveto
          -20 -103 callgsubr
          -456 vlineto
          -2 callsubr
          hintmask 11100000
          -42 -182 -88 callgsubr
          endchar
        </CharString>
        <CharString name="exclamdown">
          -226 415 110 hstemhm
          96 97 hintmask 00000000
          136 -75 callsubr
          hintmask 11000000
          -54 -572 rmoveto
          -14 11 -8 28 vhcurveto
          20 -102 callgsubr
          456 vlineto
          -11 callgsubr
          -11 hlineto
          -21 -9 -8 -14 -1 hvcurveto
          endchar
        </CharString>
        <CharString name="f">
          -195 19 -21 453 72 161 72 hstem
          108 84 vstem
          -88 callsubr
          endchar
        </CharString>
        <CharString name="fi">
          43 19 -21 453 72 2 -20 144 103 -68 72 hstemhm
          108 84 193 92 hintmask 00000000
          hintmask 11001100
          -88 callsubr
          hintmask 00000000
          317 198 rmoveto
          12 -102 callgsubr
          59 vlineto
          -100 callsubr
          -12 -103 callgsubr
          -59 vlineto
          -99 callsubr
          hintmask 10110010
          -36 -629 -90 callsubr
          483 vlineto
          -106 callsubr
          endchar
        </CharString>
        <CharString name="five">
          15 -6 72 284 72 206 72 hstem
          95 91 202 86 vstem
          47 54 rmoveto
          -25 76 -35 111 113 127 45 174 162 -134 47 -108 vhcurveto
          -52 hlineto
          13 206 rlineto
          217 hlineto
          -68 callgsubr
          -266 hlineto
          -21 -10 -9 -21 -1 hvcurveto
          -17 -290 rlineto
          -21 6 -9 22 vhcurveto
          85 hlineto
          117 63 -48 -89 -99 -74 -48 -81 hvcurveto
          -87 -45 38 22 callgsubr
        </CharString>
        <CharString name="fl">
          71 -6 72 -47 -21 453 72 161 72 hstemhm
          108 84 188 -19 callsubr
          hintmask 01111000
          -88 callsubr
          hintmask 10000100
          272 -319 -67 callsubr
          590 vlineto
          -106 callsubr
          endchar
        </CharString>
        <CharString name="florin">
          -188 -186 -21 648 72 171 72 hstem
          15 330 vstem
          15 -185 rmoveto
          -14 8 -8 29 vhcurveto
          4 hlineto
          28 13 8 14 2 hvcurveto
          88 626 rlineto
          87 hlineto
          23 4 38 14 14 -6 6 -11 hvcurveto
          -87 hlineto
          13 97 rlineto
          66 9 28 8 28 29 4 -5 9 hhcurveto
          14 12 39 8 2 hvcurveto
          27 -41 3 -28 -50 -83 -19 -119 -16 vhcurveto
          -14 -105 rlineto
          -40 hlineto
          -14 -7 -9 -21 -3 hvcurveto
          -3 -16 0 -4 -3 vvcurveto
          -13 5 -6 12 vhcurveto
          40 hlineto
          endchar
        </CharString>
        <CharString name="four">
          15 19 -21 169 72 463 -20 hstem
          346 83 vstem
          42 167 rmoveto
          304 -147 hlineto
          -2 callsubr
          23 hlineto
          21 9 -78 callsubr
          147 67 -72 callgsubr
          -67 441 hlineto
          -11 callgsubr
          -16 hlineto
          -14 -13 -5 -9 -7 hvcurveto
          -329 -459 rlineto
          -2 -2 0 -4 -5 vvcurveto
          -19 13 -32 11 vhcurveto
          75 72 rmoveto
          225 320 4 -2 rlineto
          -318 vlineto
          endchar
        </CharString>
        <CharString name="fraction">
          -256 18 -21 706 -20 hstem
          -76 427 vstem
          -13 20 rmoveto
          361 648 rlineto
          2 5 1 5 5 vvcurveto
          12 -7 8 -17 vhcurveto
          -4 hlineto
          -17 -10 -8 -15 -8 hvcurveto
          -361 -648 rlineto
          -4 callgsubr
          8 8 15 8 hvcurveto
          endchar
        </CharString>
        <CharString name="g">
          26 -212 72 324 72 195 72 -66 72 hstemhm
          34 87 -53 88 -73 89 209 88 -48 89 hintmask 0000000000000000
          34 -81 rmoveto
          -103 95 -28 131 161 89 70 87 vhcurveto
          hintmask 1110100010000000
          196 -338 -78 79 vvcurveto
          37 62 4 24 1 vhcurveto
          10 hlineto
          hintmask 1110001010000000
          131 70 77 95 35 -10 32 -23 28 hvcurveto
          70 hlineto
          -68 callgsubr
          -172 hlineto
          hintmask 1110010100000000
          4 -20 -22 2 -24 hhcurveto
          -131 -69 -78 -95 -64 31 -56 60 -29 hvcurveto
          hintmask 1101010100000000
          -35 -12 -41 -24 -49 vvcurveto
          -41 26 -24 38 -16 vhcurveto
          hintmask 1110001100000000
          -68 -24 -45 -39 -59 vvcurveto
          hintmask 1110100010000000
          234 337 rmoveto
          -62 -50 23 77 77 50 24 62 62 51 -24 -77 -77 -51 -23 -62 hvcurveto
          hintmask 1101010100000000
          -147 -328 rmoveto
          44 59 33 41 16 vhcurveto
          94 -16 106 -4 -61 vvcurveto
          -45 -59 -35 -91 -83 -67 14 54 vhcurveto
          endchar
        </CharString>
        <CharString name="germandbls">
          34 0 72 268 72 222 72 hstemhm
          90 84 222 89 -59 88 hintmask 00000000
          90 -89 callsubr
          501 vlineto
          70 43 43 68 vhcurveto
          hintmask 11110100
          53 58 -20 -86 -65 -58 -51 -61 hvcurveto
          -10 hlineto
          -77 callsubr
          33 hlineto
          hintmask 11111000
          70 56 -50 -84 -85 -56 -49 -70 hvcurveto
          -33 hlineto
          -77 callsubr
          32 hlineto
          119 96 72 134 87 -47 73 -84 19 hvcurveto
          hintmask 11110100
          61 26 41 67 58 vvcurveto
          127 -89 43 -109 -119 -78 -76 -109 vhcurveto
          endchar
        </CharString>
        <CharString name="grave">
          21 callsubr
          219 605 -100 callgsubr
        </CharString>
        <CharString name="greater">
          40 6 441 hstem
          46 472 vstem
          46 32 rmoveto
          -17 9 -9 12 5 5 1 2 5 vhcurveto
          411 174 rlineto
          16 7 9 11 17 vvcurveto
          17 vlineto
          17 -9 -11 callsubr
          -9 -9 -17 hvcurveto
          -14 vlineto
          -17 8 -8 callgsubr
          -8 -11 -17 vvcurveto
          endchar
        </CharString>
        <CharString name="greaterequal">
          23 callgsubr
          68 111 rmoveto
          5 5 1 2 5 hvcurveto
          411 174 rlineto
          16 7 7 11 17 vvcurveto
          17 vlineto
          17 -7 -11 callsubr
          -8 -9 -17 hvcurveto
          -14 vlineto
          -17 7 -8 callgsubr
          -7 -11 -17 vvcurveto
          -14 vlineto
          -17 8 -9 12 vhcurveto
          -20 -81 -34 callsubr
        </CharString>
        <CharString name="guillemotleft">
          -49 30 callsubr
          44 372 vstem
          229 22 callsubr
          130 -156 rlineto
          -81 callsubr
          -42 -156 rmoveto
          -81 callsubr
          endchar
        </CharString>
        <CharString name="guillemotright">
          -49 30 callsubr
          54 372 vstem
          226 94 rmoveto
          -12 19 -21 16 8 7 5 8 7 vhcurveto
          -79 callsubr
          -137 -33 -64 callsubr
        </CharString>
        <CharString name="guilsinglleft">
          -220 30 callsubr
          46 200 vstem
          189 74 rmoveto
          -81 callsubr
          endchar
        </CharString>
        <CharString name="guilsinglright">
          -220 30 callsubr
          54 200 vstem
          89 61 -64 callsubr
        </CharString>
        <CharString name="h">
          45 12 callsubr
          hstem
          92 84 228 84 vstem
          92 -89 callsubr
          366 vlineto
          0 51 70 75 68 34 -38 -59 vhcurveto
          -339 vlineto
          -95 callsubr
          347 vlineto
          136 -95 26 -64 -64 -54 -34 -35 -35 vhcurveto
          270 vlineto
          -106 callsubr
          endchar
        </CharString>
        <CharString name="hungarumlaut">
          -136 605 147 hstem
          59 315 vstem
          229 605 rmoveto
          -104 callgsubr
          -147 hmoveto
          -104 callsubr
        </CharString>
        <CharString name="hyphen">
          -50 callgsubr
        </CharString>
        <CharString name="i">
          -30 callgsubr
          144 103 hstemhm
          87 92 hintmask 00000000
          127 649 rmoveto
          12 -102 callgsubr
          59 vlineto
          -100 callsubr
          -12 -103 callgsubr
          -59 vlineto
          -99 callsubr
          hintmask 11110000
          -36 -629 -90 callsubr
          483 vlineto
          -106 callsubr
          endchar
        </CharString>
        <CharString name="iacute">
          -30 callgsubr
          100 -15 callsubr
          78 168 -155 12 callgsubr
          -80 callsubr
          hintmask 00110000
          10 102 -103 callsubr
        </CharString>
        <CharString name="icircumflex">
          -30 callgsubr
          79 6 callsubr
          13 242 -164 12 callgsubr
          -80 callsubr
          hintmask 00110000
          -55 81 -107 callsubr
        </CharString>
        <CharString name="idieresis">
          -30 callgsubr
          102 95 hstemhm
          20 84 -13 84 -11 12 callgsubr
          -80 callsubr
          hintmask 00110100
          113 104 -101 callsubr
          -144 hmoveto
          -107 callgsubr
          endchar
        </CharString>
        <CharString name="igrave">
          -30 callgsubr
          100 -15 callsubr
          33 168 -110 12 callgsubr
          -80 callsubr
          hintmask 00110000
          87 102 -100 callgsubr
        </CharString>
        <CharString name="infinity">
          268 115 60 212 57 hstem
          49 62 564 63 vstem
          204 115 rmoveto
          82 55 56 62 52 hvcurveto
          -85 70 56 -33 59 hhcurveto
          82 78 65 104 95 -64 65 -91 -87 -45 -63 -53 -53 hvcurveto
          64 -52 -57 52 -77 hhcurveto
          -93 -70 -69 -97 -94 72 -69 83 hvcurveto
          225 167 rmoveto
          56 51 44 49 54 hhcurveto
          56 41 -42 -67 -49 -34 -54 -60 -51 -37 32 75 -64 hvcurveto
          -217 -107 rmoveto
          -60 -41 47 56 61 38 48 58 65 52 -55 -56 37 hvcurveto
          -44 -36 -52 -57 -61 hhcurveto
          endchar
        </CharString>
        <CharString name="integral">
          -148 -159 58 914 58 hstemhm
          142 77 -63 77 hintmask 00000000
          30 -95 rmoveto
          -9 -7 -11 -20 -27 39 -6 30 97 53 74 178 hvcurveto
          hintmask 11010000
          163 -14 198 158 vvcurveto
          141 28 60 65 vhcurveto
          17 14 -6 2 hhcurveto
          9 7 11 20 27 -39 6 -30 -97 -53 -74 -178 hvcurveto
          hintmask 11100000
          -159 14 -196 -164 vvcurveto
          -141 -28 -60 -65 vhcurveto
          -17 -14 6 -2 hhcurveto
          endchar
        </CharString>
        <CharString name="j">
          -244 -212 72 665 -20 144 103 hstemhm
          97 92 hintmask 00000000
          137 649 rmoveto
          12 -102 callgsubr
          59 vlineto
          -100 callsubr
          -12 -103 callgsubr
          -59 vlineto
          -99 callsubr
          hintmask 11110000
          -36 -715 rmoveto
          -60 -25 -14 -29 vhcurveto
          -29 -5 5 -9 hhcurveto
          -14 -7 -39 -8 -27 46 -3 27 50 79 22 116 hvcurveto
          577 vlineto
          -106 callsubr
          endchar
        </CharString>
        <CharString name="k">
          1 19 -21 250 35 242 -20 hstem
          94 84 vstem
          94 -89 callsubr
          228 4 vlineto
          200 -237 rlineto
          -12 10 22 -1 22 hhcurveto
          4 11 callgsubr
          -206 244 186 220 8 callgsubr
          -4 hlineto
          -22 -22 -3 -11 -9 hvcurveto
          -191 -228 rlineto
          -4 447 hlineto
          -106 callsubr
          endchar
        </CharString>
        <CharString name="l">
          -223 -6 72 hstem
          82 84 vstem
          82 132 -67 callsubr
          590 vlineto
          -106 callsubr
          endchar
        </CharString>
        <CharString name="less">
          40 7 441 hstem
          41 472 vstem
          66 184 4 callgsubr
          9 9 27 callgsubr
          -8 -7 callsubr
          8 12 17 vvcurveto
          14 vlineto
          17 -9 -6 callgsubr
          -9 -11 -17 vvcurveto
          -17 vlineto
          -17 9 -11 16 -7 vhcurveto
          endchar
        </CharString>
        <CharString name="lessequal">
          23 callgsubr
          72 288 4 callgsubr
          8 9 27 callgsubr
          -7 -7 callsubr
          7 12 17 vvcurveto
          14 vlineto
          17 -8 -6 callgsubr
          -7 -11 -17 vvcurveto
          -17 vlineto
          -17 7 -11 16 -7 vhcurveto
          -24 -258 -34 callsubr
        </CharString>
        <CharString name="logicalnot">
          40 265 73 hstem
          449 73 vstem
          58 265 rmoveto
          391 -166 hlineto
          -2 callsubr
          13 hlineto
          21 9 -78 callsubr
          209 16 callsubr
          -434 -65 callsubr
          -13 -54 callgsubr
        </CharString>
        <CharString name="lozenge">
          38 -25 744 hstem
          55 453 vstem
          237 -4 rmoveto
          -14 7 11 -7 17 hhcurveto
          19 hlineto
          17 10 7 14 8 hvcurveto
          176 330 rlineto
          4 8 2 6 7 vvcurveto
          7 -2 6 -4 7 vhcurveto
          -176 331 rlineto
          14 -8 -10 7 -17 hhcurveto
          -19 hlineto
          -17 -11 -7 -14 -7 hvcurveto
          -176 -331 rlineto
          -4 -7 -2 -6 -7 vvcurveto
          -6 2 -7 4 -7 vhcurveto
          220 -278 rmoveto
          -154 298 154 297 155 -297 rlineto
          endchar
        </CharString>
        <CharString name="lslash">
          -227 -6 72 hstem
          80 84 vstem
          80 132 -67 callsubr
          262 vlineto
          42 25 -16 callgsubr
          -42 -25 rlineto
          282 vlineto
          -106 callsubr
          -332 vlineto
          -42 -24 -17 callsubr
          42 25 rlineto
          endchar
        </CharString>
        <CharString name="m">
          328 12 callsubr
          hstem
          85 84 218 84 218 84 cntrmask 00111000
          85 -89 callsubr
          367 vlineto
          0 49 69 73 64 32 -38 -59 vhcurveto
          -339 vlineto
          -95 callsubr
          346 vlineto
          7 0 7 -1 7 vhcurveto
          17 15 47 52 61 hhcurveto
          64 32 -38 -59 hvcurveto
          -339 vlineto
          -95 callsubr
          347 vlineto
          136 -93 26 -64 -63 -58 -38 -45 -38 vhcurveto
          68 -28 -66 15 -49 hhcurveto
          -64 -55 -37 -38 -33 -15 callgsubr
        </CharString>
        <CharString name="macron">
          612 70 hstem
          27 263 vstem
          47 612 rmoveto
          223 hlineto
          -90 callgsubr
          10 -94 callgsubr
          -223 -57 callsubr
        </CharString>
        <CharString name="minus">
          40 186 73 hstem
          38 484 vstem
          58 186 rmoveto
          444 hlineto
          -90 callgsubr
          13 -94 callgsubr
          -444 -65 callsubr
          -13 -54 callgsubr
        </CharString>
        <CharString name="mu">
          46 -187 -21 202 73 -47 -21 526 -20 hstemhm
          85 84 228 -19 callsubr
          169 9 rmoveto
          -9 22 27 -6 30 hhcurveto
          56 58 28 47 42 hvcurveto
          hintmask 11011100
          -91 callsubr
          355 vlineto
          -106 callsubr
          hintmask 10111100
          -85 callgsubr
          -689 vlineto
          -95 callsubr
          endchar
        </CharString>
        <CharString name="multiply">
          40 0 454 hstem
          54 451 vstem
          62 28 rmoveto
          19 -20 2 callgsubr
          171 173 171 -173 2 callgsubr
          19 20 1 callsubr
          -171 172 171 171 1 callsubr
          -19 20 2 callsubr
          -171 -172 -171 172 2 callsubr
          -19 -20 3 callgsubr
          171 -171 -171 -172 3 callgsubr
          endchar
        </CharString>
        <CharString name="n">
          37 12 callsubr
          hstem
          86 84 228 84 vstem
          -70 callsubr
          endchar
        </CharString>
        <CharString name="nbspace">
          -40 endchar
        </CharString>
        <CharString name="nine">
          15 19 -21 297 72 266 72 hstem
          55 85 260 84 vstem
          126 51 rmoveto
          -12 12 -41 21 67 258 166 289 159 -71 93 -142 -121 -95 -81 -127 -123 85 -79 106 61 43 15 18 31 vhcurveto
          -32 -112 -79 -98 -136 -56 rrcurveto
          -7 -3 -1 -5 -3 vvcurveto
          145 316 rmoveto
          -66 -65 36 98 92 72 40 54 63 71 -32 -140 -19 -2 -21 -2 -20 hvcurveto
          -16 -28 -44 -18 -53 hhcurveto
          endchar
        </CharString>
        <CharString name="notequal">
          14 callgsubr
          94 27 rmoveto
          -10 9 -7 17 vhcurveto
          11 hlineto
          16 11 5 13 10 hvcurveto
          64 79 rlineto
          250 16 callgsubr
          8 -41 callgsubr
          -196 hlineto
          77 96 rlineto
          119 hlineto
          7 callsubr
          -65 hlineto
          45 56 rlineto
          6 7 2 7 5 vvcurveto
          11 -9 7 -16 vhcurveto
          -11 hlineto
          -16 -11 -5 -13 -10 hvcurveto
          -61 -75 rlineto
          -258 -37 callgsubr
          -7 vlineto
          -22 callgsubr
          204 hlineto
          -77 -96 rlineto
          -127 -37 callgsubr
          -8 vlineto
          -22 callgsubr
          73 hlineto
          -48 -60 rlineto
          -6 -7 -3 -7 -6 vvcurveto
          endchar
        </CharString>
        <CharString name="ntilde">
          37 12 callsubr
          86 -19 callgsubr
          86 84 -41 318 -49 -19 callsubr
          hintmask 11000101
          -70 callsubr
          hintmask 00000000
          126 264 -85 callsubr
        </CharString>
        <CharString name="numbersign">
          14 19 -21 198 77 147 77 hstem
          13 507 vstem
          77 15 rmoveto
          -11 9 -6 19 vhcurveto
          4 hlineto
          36 4 8 14 3 hvcurveto
          32 176 rlineto
          118 hlineto
          -32 -181 rlineto
          -11 9 -6 19 vhcurveto
          4 hlineto
          34 6 8 14 3 hvcurveto
          31 176 rlineto
          92 hlineto
          -90 callgsubr
          17 -94 callgsubr
          -76 hlineto
          25 147 rlineto
          83 hlineto
          -90 callgsubr
          17 -94 callgsubr
          -68 hlineto
          31 25 callgsubr
          -5 hlineto
          -38 -4 -8 -14 -2 hvcurveto
          -30 -167 rlineto
          -119 hlineto
          33 25 callgsubr
          -4 hlineto
          -38 -4 -8 -14 -2 hvcurveto
          -31 -167 rlineto
          -94 -65 callsubr
          -17 -83 callsubr
          81 hlineto
          -26 -147 rlineto
          -91 -65 callsubr
          -17 -83 callsubr
          76 hlineto
          90 77 rmoveto
          26 147 rlineto
          118 hlineto
          -26 -147 rlineto
          endchar
        </CharString>
        <CharString name="o">
          -27 callgsubr
          hstem
          55 88 284 87 vstem
          -97 callgsubr
          endchar
        </CharString>
        <CharString name="oacute">
          7 callgsubr
          85 168 31 -82 callgsubr
          -33 539 -103 callsubr
        </CharString>
        <CharString name="ocircumflex">
          -27 callgsubr
          55 6 callsubr
          55 88 20 242 22 -82 callgsubr
          -98 518 -107 callsubr
        </CharString>
        <CharString name="odieresis">
          -27 callgsubr
          78 95 hstemhm
          55 88 27 84 60 84 29 87 hintmask 00000000
          hintmask 11010010
          -97 callgsubr
          hintmask 00101100
          70 541 -101 callsubr
          -144 hmoveto
          -107 callgsubr
          endchar
        </CharString>
        <CharString name="oe">
          351 -35 callsubr
          hstem
          55 88 234 29 callsubr
          -60 callsubr
          68 53 19 37 38 vhcurveto
          -38 40 59 -18 77 hhcurveto
          -43 callsubr
          hvcurveto
          -81 callgsubr
          -71 -54 -20 -39 -39 hvcurveto
          39 -38 -54 20 -67 hhcurveto
          -33 callgsubr
          hvcurveto
          412 40 -57 callgsubr
          -443 -233 rmoveto
          -98 -43 -23 callgsubr
          44 62 97 54 38 -20 -40 23 hvcurveto
          -15 -39 -7 -46 -54 vvcurveto
          -54 7 -45 14 -37 vhcurveto
          -38 -23 -38 -18 -53 hhcurveto
          endchar
        </CharString>
        <CharString name="ogonek">
          -183 70 hstem
          54 67 vstem
          54 -81 rmoveto
          -29 11 -73 107 48 34 12 34 vhcurveto
          9 vlineto
          17 -7 8 -12 vhcurveto
          -16 -21 -10 -15 hhcurveto
          -23 -39 3 48 hvcurveto
          24 12 23 14 vvcurveto
          10 -5 5 -13 vhcurveto
          -9 hlineto
          -44 -8 -69 -26 hvcurveto
          endchar
        </CharString>
        <CharString name="ograve">
          7 callgsubr
          40 168 76 -82 callgsubr
          44 539 -100 callgsubr
        </CharString>
        <CharString name="one">
          15 0 72 630 -20 hstem
          237 84 vstem
          43 30 rmoveto
          -78 callgsubr
          406 hlineto
          -68 callgsubr
          -148 609 hlineto
          12 -16 9 -15 vhcurveto
          -232 -51 rlineto
          -12 -3 -6 -5 -11 vvcurveto
          -18 6 -33 14 vhcurveto
          177 30 rlineto
          -539 -174 vlineto
          -75 callgsubr
          endchar
        </CharString>
        <CharString name="onehalf">
          226 0 41 277 -21 68 42 295 -20 21 -20 hstemhm
          127 48 461 50 -76 callgsubr
          298 -272 rmoveto
          -11 5 -14 7 vhcurveto
          -63 callgsubr
          endchar
        </CharString>
        <CharString name="onequarter">
          151 19 -21 89 42 189 -21 405 -20 21 -20 hstemhm
          127 48 355 48 -76 callgsubr
          193 -180 -73 callgsubr
        </CharString>
        <CharString name="onesuperior">
          -303 318 -21 405 -20 hstem
          127 48 vstem
          148 297 -3 callgsubr
          -58 callgsubr
          -10 11 -4 10 vhcurveto
          endchar
        </CharString>
        <CharString name="ordfeminine">
          -201 441 37 92 35 65 36 hstem
          45 45 120 41 vstem
          129 441 rmoveto
          38 27 17 21 19 hvcurveto
          -14 2 3 -21 12 hhcurveto
          6 21 2 9 hvcurveto
          3 -6 19 40 vvcurveto
          111 vlineto
          49 -37 29 -61 -49 -44 -19 -13 -6 11 -18 7 vhcurveto
          5 27 20 45 hhcurveto
          41 14 -19 -22 hvcurveto
          -24 vlineto
          -77 -1 -88 -5 -84 vvcurveto
          -50 37 -24 47 vhcurveto
          2 37 rmoveto
          -27 -14 13 27 52 68 0 52 hvcurveto
          -59 vlineto
          -18 -20 -22 -15 -37 hhcurveto
          endchar
        </CharString>
        <CharString name="ordmasculine">
          -183 441 36 193 36 hstem
          55 43 141 43 vstem
          170 441 rmoveto
          73 39 46 85 87 -40 47 -72 -74 -41 -48 -86 -85 40 -46 75 hvcurveto
          -2 36 rmoveto
          -48 -22 31 65 67 22 30 48 49 22 -31 -66 -65 -22 -31 -49 hvcurveto
          endchar
        </CharString>
        <CharString name="oslash">
          49 -5 72 389 72 hstem
          55 87 285 87 vstem
          64 23 rmoveto
          -8 14 -13 9 5 4 3 5 5 vhcurveto
          29 34 rlineto
          -39 45 59 -10 53 hhcurveto
          104 123 39 225 83 -17 58 -27 41 hvcurveto
          39 45 rlineto
          4 13 callgsubr
          8 -14 13 -8 -5 -4 -3 -5 -5 vhcurveto
          -34 -40 rlineto
          43 -45 -59 12 -54 hhcurveto
          -104 -128 -44 -225 -86 18 -59 29 -40 hvcurveto
          -31 -37 rlineto
          -4 -5 -3 -4 -5 vvcurveto
          96 119 rmoveto
          -12 29 -6 39 51 vvcurveto
          145 53 50 89 45 37 -13 -33 25 vhcurveto
          -208 -305 rmoveto
          228 267 rlineto
          11 -29 5 -36 -46 vvcurveto
          -145 -54 -49 -89 -43 -34 11 27 -24 vhcurveto
          endchar
        </CharString>
        <CharString name="otilde">
          -27 callgsubr
          86 -19 callgsubr
          55 88 -18 318 -16 87 hintmask 00000000
          hintmask 11000101
          -97 callgsubr
          hintmask 00000000
          -76 569 -85 callsubr
        </CharString>
        <CharString name="p">
          53 -9 callgsubr
          hstem
          86 84 258 88 vstem
          170 -26 callgsubr
          -57 -53 -24 -51 -49 vhcurveto
          -61 callgsubr
          -557 -53 callgsubr
        </CharString>
        <CharString name="paragraph">
          -5 638 62 hstem
          243 62 78 62 vstem
          243 -151 rmoveto
          -4 callsubr
          78 -789 vlineto
          -4 callsubr
          36 vlineto
          14 6 7 27 callgsubr
          -6 7 -14 vhcurveto
          -213 hlineto
          -125 -102 -102 -125 -117 89 -96 113 -13 hvcurveto
          endchar
        </CharString>
        <CharString name="parenleft">
          -219 -191 -21 hstem
          55 81 vstem
          55 286 rmoveto
          -205 73 -180 111 -102 vhcurveto
          -7 7 8 -4 7 hhcurveto
          15 13 18 10 6 -3 7 -6 7 hvcurveto
          -88 106 -56 162 182 vvcurveto
          182 56 163 89 105 vhcurveto
          6 8 3 7 7 vvcurveto
          14 -18 11 -12 -7 -7 -3 -7 -7 vhcurveto
          -111 -102 -73 -180 -205 vvcurveto
          endchar
        </CharString>
        <CharString name="parenright">
          -219 -190 -21 hstem
          165 81 vstem
          16 -170 rmoveto
          -4 -5 -3 -5 -5 vvcurveto
          -12 18 -14 14 7 7 3 7 7 vhcurveto
          111 102 73 180 205 vvcurveto
          205 -73 180 -111 102 vhcurveto
          7 -7 -8 4 -7 hhcurveto
          -15 -13 -18 -10 -6 3 -7 6 -7 hvcurveto
          88 -106 56 -162 -182 vvcurveto
          -186 -58 -165 -91 -105 vhcurveto
          endchar
        </CharString>
        <CharString name="partialdiff">
          -6 -6 67 254 -21 50 70 251 73 hstem
          40 92 249 99 vstem
          40 199 rmoveto
          -162 122 -43 76 93 149 67 276 260 -116 141 -152 -62 -80 -28 -31 -14 22 -30 10 vhcurveto
          11 26 30 60 hhcurveto
          97 85 -117 -189 hvcurveto
          27 -25 -42 28 -69 hhcurveto
          -77 -128 -61 -154 hvcurveto
          92 -9 rmoveto
          76 49 78 78 54 33 -17 -33 33 vhcurveto
          -122 -8 -46 -111 -86 hhcurveto
          -78 -29 72 57 hvcurveto
          endchar
        </CharString>
        <CharString name="percent">
          245 11 callsubr
          60 17 callgsubr
          97 17 callgsubr
          vstem
          161 -56 callsubr
          36 -48 callgsubr
          234 -280 rmoveto
          -45 callgsubr
          66 -38 callgsubr
          endchar
        </CharString>
        <CharString name="period">
          -322 -2 29 callgsubr
          vstem
          51 20 -88 callgsubr
          endchar
        </CharString>
        <CharString name="periodcentered">
          -253 309 103 hstem
          90 103 vstem
          141 309 rmoveto
          29 23 22 29 29 -23 23 -29 -29 -22 -23 -29 -29 22 -22 29 hvcurveto
          endchar
        </CharString>
        <CharString name="perthousand">
          518 11 callsubr
          64 17 callgsubr
          54 17 callgsubr
          38 17 callgsubr
          vstem
          141 -56 callsubr
          60 -48 callgsubr
          503 -280 rmoveto
          -45 callgsubr
          -312 hmoveto
          -45 callgsubr
          378 -38 callgsubr
          -312 -38 callgsubr
          endchar
        </CharString>
        <CharString name="pi">
          96 19 -21 453 72 hstem
          140 84 195 84 vstem
          66 19 rmoveto
          -12 10 -9 18 vhcurveto
          23 hlineto
          17 11 9 16 6 hvcurveto
          36 103 31 198 6 127 rrcurveto
          195 -305 hlineto
          -106 3 -42 40 vhcurveto
          24 hlineto
          18 8 10 15 hvcurveto
          25 -9 38 68 vvcurveto
          297 55 vlineto
          18 11 4 18 2 hvcurveto
          3 26 0 3 2 vvcurveto
          15 -9 4 -15 vhcurveto
          -406 hlineto
          -87 -61 -10 -34 -23 4 -14 16 hvcurveto
          18 10 9 78 hhcurveto
          -6 -131 -29 -180 -37 -112 rrcurveto
          -1 -3 -1 -3 -3 vvcurveto
          endchar
        </CharString>
        <CharString name="plus">
          40 19 -21 199 67 hstem
          247 67 vstem
          68 197 rmoveto
          179 -179 hlineto
          -14 9 -6 21 vhcurveto
          7 hlineto
          21 9 6 14 hvcurveto
          179 178 vlineto
          -90 callgsubr
          7 -94 callgsubr
          -178 179 hlineto
          14 -9 6 -21 vhcurveto
          -7 hlineto
          -21 -9 -6 -14 hvcurveto
          -179 -179 vlineto
          -14 -6 -13 -21 hvcurveto
          -7 vlineto
          -21 6 -5 14 vhcurveto
          endchar
        </CharString>
        <CharString name="plusminus">
          40 0 73 254 67 hstem
          247 67 vstem
          247 159 rmoveto
          -22 callgsubr
          7 16 callgsubr
          168 168 vlineto
          7 callsubr
          -168 169 hlineto
          20 -10 10 -20 vhcurveto
          -7 -37 callgsubr
          -169 -169 vlineto
          -19 -11 -10 -20 hvcurveto
          -7 vlineto
          -22 callgsubr
          169 hlineto
          -209 -297 rmoveto
          13 callsubr
          424 -26 callsubr
          -424 -37 callgsubr
          endchar
        </CharString>
        <CharString name="product">
          230 628 72 hstem
          147 86 283 86 vstem
          147 -82 rmoveto
          -99 callsubr
          6 -102 callgsubr
          710 283 -710 vlineto
          -99 callsubr
          6 -102 callgsubr
          710 103 -72 callgsubr
          -661 hlineto
          -77 callsubr
          103 hlineto
          endchar
        </CharString>
        <CharString name="q">
          46 -9 callgsubr
          -16 12 hstemhm
          52 88 258 -19 callsubr
          255 -6 rmoveto
          62 42 21 30 39 hvcurveto
          -231 vlineto
          -95 callsubr
          hintmask 11101100
          689 vlineto
          -11 callgsubr
          -4 hlineto
          -14 -9 -3 -9 -4 hvcurveto
          0 -9 -24 -7 -35 vhcurveto
          hintmask 11011100
          51 -49 -53 24 -57 hhcurveto
          -120 -74 -112 -152 hvcurveto
          -9 vlineto
          -168 84 -94 119 vhcurveto
          16 74 rmoveto
          -86 2 -45 65 119 vvcurveto
          129 44 73 79 44 50 -24 -45 41 vhcurveto
          -274 vlineto
          -30 -36 -42 -15 -43 hhcurveto
          endchar
        </CharString>
        <CharString name="question">
          -75 -2 110 524 74 hstem
          136 97 97 95 vstem
          149 225 rmoveto
          -14 9 -9 21 vhcurveto
          15 hlineto
          24 7 7 13 2 hvcurveto
          15 116 183 65 135 vvcurveto
          90 -72 78 -133 -73 -99 -23 -34 -14 22 -37 10 vhcurveto
          15 46 34 63 hhcurveto
          83 43 -34 -70 -50 -44 -43 -51 -51 hvcurveto
          -55 -55 -31 -59 -45 vvcurveto
          -13 -205 -88 callgsubr
          endchar
        </CharString>
        <CharString name="questiondown">
          -95 -183 74 524 110 hstem
          19 95 99 97 vstem
          253 -75 callsubr
          -234 -430 rmoveto
          -90 72 -78 133 73 99 23 34 14 -22 37 -10 vhcurveto
          -15 -46 -34 -63 hhcurveto
          -83 -43 34 70 50 44 43 51 51 hvcurveto
          55 55 31 59 45 vvcurveto
          14 -9 9 -21 vhcurveto
          -15 hlineto
          -24 -7 -7 -13 -2 hvcurveto
          -15 -116 -183 -65 -135 vvcurveto
          endchar
        </CharString>
        <CharString name="quotedbl">
          -201 702 -20 hstem
          50 90 38 90 vstem
          223 472 rmoveto
          13 7 4 8 2 hvcurveto
          23 182 rlineto
          14 vlineto
          -100 callsubr
          -10 -103 callgsubr
          -12 vlineto
          22 -184 rlineto
          -8 2 7 -4 14 hhcurveto
          -128 hmoveto
          13 7 4 8 2 hvcurveto
          23 182 rlineto
          14 vlineto
          -100 callsubr
          -10 -103 callgsubr
          -12 vlineto
          22 -184 rlineto
          -8 2 7 -4 14 hhcurveto
          endchar
        </CharString>
        <CharString name="quotedblbase">
          -184 -116 224 hstem
          55 89 50 89 vstem
          160 -77 rmoveto
          -82 callsubr
          -139 hmoveto
          -82 callsubr
          endchar
        </CharString>
        <CharString name="quotedblleft">
          -170 515 224 hstem
          40 89 50 89 vstem
          219 515 rmoveto
          -62 callgsubr
          -139 hmoveto
          -62 callgsubr
          endchar
        </CharString>
        <CharString name="quotedblright">
          -170 530 224 hstem
          77 89 50 89 vstem
          202 530 rmoveto
          -63 callsubr
          -139 hmoveto
          -63 callsubr
          endchar
        </CharString>
        <CharString name="quoteleft">
          -308 515 224 hstem
          58 89 vstem
          98 515 rmoveto
          -62 callgsubr
          endchar
        </CharString>
        <CharString name="quoteright">
          -308 530 224 hstem
          75 89 vstem
          61 530 rmoveto
          -63 callsubr
          endchar
        </CharString>
        <CharString name="quotesinglbase">
          -53 callsubr
        </CharString>
        <CharString name="quotesingle">
          -337 702 -20 hstem
          50 90 vstem
          95 472 rmoveto
          13 7 4 8 2 hvcurveto
          23 182 rlineto
          14 vlineto
          -100 callsubr
          -10 -103 callgsubr
          -12 vlineto
          22 -184 rlineto
          -8 2 7 -4 14 hhcurveto
          endchar
        </CharString>
        <CharString name="r">
          -154 19 -21 449 82 hstem
          90 84 vstem
          90 -89 callsubr
          366 vlineto
          0 40 61 52 vhcurveto
          34 8 -11 13 hhcurveto
          12 8 35 19 22 -19 17 -39 -42 -40 -27 -48 -34 -15 callgsubr
        </CharString>
        <CharString name="radical">
          98 317 -21 hstem
          36 589 vstem
          60 272 rmoveto
          7 1 1 23 60 hvcurveto
          162 -425 rlineto
          -14 5 13 -7 19 hhcurveto
          30 hlineto
          17 15 8 13 3 hvcurveto
          232 921 rlineto
          1 3 0 2 3 vvcurveto
          7 -9 6 -21 vhcurveto
          -12 hlineto
          -22 -14 -8 -13 -3 hvcurveto
          -203 -830 -5 20 -6 24 -10 28 rlinecurve
          -42 118 -44 117 -31 90 rrcurveto
          14 -5 -7 7 -10 hhcurveto
          -10 -76 -32 -17 -45 hvcurveto
          -10 -4 -4 -6 -8 vvcurveto
          -3 0 -3 8 -22 vhcurveto
          -10 3 6 -3 7 hhcurveto
          endchar
        </CharString>
        <CharString name="registered">
          219 -5 48 285 45 141 45 103 48 hstem
          10 48 191 52 153 54 173 -71 callsubr
          191 -196 rmoveto
          -8 7 -5 17 vhcurveto
          4 hlineto
          17 7 5 8 hvcurveto
          170 53 vlineto
          46 24 -12 -46 18 hvcurveto
          45 -116 rlineto
          -5 2 9 -4 12 hhcurveto
          6 hlineto
          17 8 4 5 2 -1 3 -1 4 hvcurveto
          -46 116 -16 39 -12 26 -25 9 rlinecurve
          2 vlineto
          41 16 27 33 51 vvcurveto
          74 -50 30 -92 vhcurveto
          -99 hlineto
          -13 -5 -5 -13 hvcurveto
          52 -168 rmoveto
          141 74 vlineto
          47 32 -21 -48 -39 -33 -33 -42 hvcurveto
          endchar
        </CharString>
        <CharString name="ring">
          564 35 99 35 hstem
          76 35 99 35 vstem
          160 564 -71 callgsubr
        </CharString>
        <CharString name="s">
          -107 -33 callsubr
          hstem
          48 86 153 85 vstem
          -69 callgsubr
          endchar
        </CharString>
        <CharString name="scaron">
          -107 -33 callsubr
          53 6 callsubr
          48 86 -44 242 -45 85 -20 callsubr
          -69 callgsubr
          hintmask 00101000
          163 528 -94 callsubr
        </CharString>
        <CharString name="section">
          -91 26 callsubr
          hstemhm
          50 85 -70 86 128 85 -70 85 hintmask 00000000
          74 36 rmoveto
          -22 63 -20 68 vhcurveto
          hintmask 11100100
          78 81 40 104 41 -16 28 -24 20 hvcurveto
          hintmask 11101000
          33 26 22 38 52 198 -228 -71 104 vvcurveto
          34 25 26 57 -29 callgsubr
          -79 -81 -40 -102 -42 16 -28 22 -20 hvcurveto
          hintmask 11010100
          -30 -26 -23 -39 -50 -199 229 70 -104 vvcurveto
          -33 -26 -27 -57 vhcurveto
          -54 -31 24 -5 hhcurveto
          hintmask 11101000
          -13 -19 -38 -16 hvcurveto
          164 22 callsubr
          -54 16 -49 16 61 vvcurveto
          47 28 21 28 8 vhcurveto
          53 -16 50 -17 -59 vvcurveto
          -49 -26 -21 -30 -7 vhcurveto
          endchar
        </CharString>
        <CharString name="semicolon">
          -322 415 110 hstemhm
          51 97 hintmask 00000000
          91 -75 callsubr
          hintmask 11000000
          -70 -492 rmoveto
          -82 callsubr
          endchar
        </CharString>
        <CharString name="seven">
          15 19 -21 630 72 hstem
          55 435 vstem
          97 16 rmoveto
          -14 14 -4 29 vhcurveto
          12 hlineto
          20 15 6 10 5 hvcurveto
          296 624 rlineto
          1 3 1 4 4 vvcurveto
          20 -12 31 -8 vhcurveto
          -395 hlineto
          -77 callsubr
          315 hlineto
          -289 -600 rlineto
          -2 -5 -2 -4 -3 vvcurveto
          endchar
        </CharString>
        <CharString name="six">
          15 -5 72 253 -21 34 72 297 -20 hstem
          51 84 260 85 vstem
          51 247 rmoveto
          -159 71 -93 142 121 95 81 127 123 -85 79 -106 -61 -43 -15 -18 -31 vhcurveto
          32 112 79 98 136 56 rrcurveto
          7 3 1 5 3 vvcurveto
          12 -12 41 -21 -67 -258 -166 -289 vhcurveto
          84 -8 rmoveto
          19 2 21 2 20 vhcurveto
          16 28 44 18 53 hhcurveto
          66 65 -36 -98 -92 -72 -40 -54 -63 -71 32 140 hvcurveto
          endchar
        </CharString>
        <CharString name="slash">
          -150 703 -20 hstem
          -10 376 vstem
          -7 -41 rmoveto
          -4 callgsubr
          9 7 16 7 hvcurveto
          310 721 rlineto
          2 5 1 5 5 vvcurveto
          12 -7 8 -17 vhcurveto
          -4 hlineto
          -17 -11 -7 -16 -7 hvcurveto
          endchar
        </CharString>
        <CharString name="space">
          -280 endchar
        </CharString>
        <CharString name="sterling">
          -29 0 72 267 72 223 72 hstem
          119 84 vstem
          33 30 rmoveto
          -78 callgsubr
          373 hlineto
          -68 callgsubr
          -280 hlineto
          21 13 36 26 138 vvcurveto
          90 147 -72 callgsubr
          -147 92 hlineto
          91 41 40 96 vhcurveto
          32 23 23 callsubr
          -63 5 -38 -149 -56 -82 -126 hvcurveto
          -87 -55 vlineto
          -77 callsubr
          55 -180 hlineto
          -86 -86 16 -43 vvcurveto
          endchar
        </CharString>
        <CharString name="summation">
          73 -102 85 338 -21 328 72 hstem
          23 549 vstem
          36 -36 rmoveto
          -9 -12 -4 -10 -14 vvcurveto
          13 callsubr
          489 hlineto
          20 10 10 20 hvcurveto
          25 vlineto
          19 -10 11 -20 vhcurveto
          -396 hlineto
          -1 4 236 303 rlineto
          6 7 2 7 7 vvcurveto
          7 -2 7 -6 7 vhcurveto
          -215 292 rlineto
          4 358 vlineto
          -23 callsubr
          12 -41 callgsubr
          -459 hlineto
          -19 -11 -8 -16 -15 3 -11 9 -12 hvcurveto
          252 -338 rlineto
          endchar
        </CharString>
        <CharString name="t">
          -178 -6 72 385 72 hstem
          107 84 vstem
          107 132 -67 callsubr
          311 -36 callgsubr
          -50 hlineto
          -77 callsubr
          50 hlineto
          endchar
        </CharString>
        <CharString name="thorn">
          50 -9 callgsubr
          hstem
          85 84 258 88 vstem
          169 -26 callgsubr
          -54 -51 -22 -46 -47 vhcurveto
          269 vlineto
          -106 callsubr
          -916 -53 callgsubr
        </CharString>
        <CharString name="three">
          15 -6 72 270 71 227 72 hstemhm
          361 85 -64 87 hintmask 00000000
          45 51 rmoveto
          -25 84 -32 117 99 124 55 154 105 -66 63 -60 16 vhcurveto
          4 vlineto
          hintmask 11101000
          53 21 50 47 70 vvcurveto
          119 -83 58 -119 -61 -118 -23 -30 -15 22 -37 11 vhcurveto
          17 36 33 91 hhcurveto
          97 22 -58 -38 -48 -30 -83 -103 hvcurveto
          -29 -65 callsubr
          -11 -83 callsubr
          33 hlineto
          hintmask 11110000
          90 60 -30 -102 -109 -84 -29 -60 hvcurveto
          -89 -50 35 22 callgsubr
        </CharString>
        <CharString name="threequarters">
          218 19 -21 89 42 164 42 156 42 131 42 -3 -20 hstemhm
          222 50 -38 51 314 48 hintmask 0000000000000000
          39 -16 callsubr
          hintmask 1111100110000000
          -54 callsubr
          hintmask 1111101010000000
          -18 callgsubr
          116 -321 -29 callsubr
          hintmask 1111100110000000
          -59 callgsubr
          hintmask 1111010110000000
          -13 callsubr
          255 112 -73 callgsubr
        </CharString>
        <CharString name="threesuperior">
          293 42 156 42 131 42 hstemhm
          226 50 -38 51 hintmask 00000000
          43 -16 callsubr
          hintmask 11101000
          -54 callsubr
          hintmask 11110000
          -18 callgsubr
          endchar
        </CharString>
        <CharString name="tilde">
          -155 615 -19 callgsubr
          24 318 hintmask 00000000
          107 635 rmoveto
          hintmask 01010000
          -55 callgsubr
          hintmask 10010000
          -18 callsubr
          hintmask 00110000
          -84 callgsubr
        </CharString>
        <CharString name="trademark">
          252 657 43 -43 44 hstemhm
          149 50 153 49 275 49 hintmask 00000000
          352 317 rmoveto
          -8 7 -4 15 vhcurveto
          4 hlineto
          16 7 4 8 hvcurveto
          306 vlineto
          115 -200 rlineto
          -5 3 3 -2 6 hhcurveto
          23 hlineto
          6 3 2 5 3 hvcurveto
          113 197 rlineto
          -303 vlineto
          -8 7 -4 16 vhcurveto
          4 hlineto
          15 7 4 8 hvcurveto
          hintmask 10111000
          372 vlineto
          8 -7 4 -15 vhcurveto
          -19 hlineto
          -14 -6 -4 -6 -4 hvcurveto
          -106 -188 -15 -32 -14 35 -107 185 rlineto
          6 -3 -7 4 -13 hhcurveto
          -21 hlineto
          -15 -7 -4 -8 hvcurveto
          -180 -384 rmoveto
          4 hlineto
          16 7 5 7 hvcurveto
          hintmask 01111000
          340 106 vlineto
          8 3 5 12 hvcurveto
          9 vlineto
          12 -3 5 -8 vhcurveto
          -264 hlineto
          -8 -3 -5 -12 hvcurveto
          -9 vlineto
          -12 3 -5 8 vhcurveto
          108 -340 hlineto
          hintmask 10111000
          -7 7 -5 16 vhcurveto
          endchar
        </CharString>
        <CharString name="two">
          15 0 71 563 72 hstem
          381 86 vstem
          51 44 rmoveto
          -19 8 -25 12 vhcurveto
          382 hlineto
          -90 callgsubr
          11 -94 callgsubr
          -288 hlineto
          73 89 rlineto
          202 247 27 33 96 vvcurveto
          105 -82 65 -131 -61 -119 -31 -42 -15 22 -35 10 vhcurveto
          17 42 51 91 hhcurveto
          77 48 -40 -64 -73 -15 -7 -311 -389 hvcurveto
          -3 -3 -1 -7 -7 vvcurveto
          endchar
        </CharString>
        <CharString name="twosuperior">
          298 41 324 42 hstem
          225 50 vstem
          47 298 rmoveto
          -63 callgsubr
          -11 5 -14 7 vhcurveto
          endchar
        </CharString>
        <CharString name="u">
          -102 callsubr
          endchar
        </CharString>
        <CharString name="uacute">
          -102 callsubr
          hintmask 10111000
          167 102 -103 callsubr
        </CharString>
        <CharString name="ucircumflex">
          -102 callsubr
          hintmask 10111000
          102 81 -107 callsubr
        </CharString>
        <CharString name="udieresis">
          -102 callsubr
          hintmask 10111000
          270 104 -101 callsubr
          -144 hmoveto
          -107 callgsubr
          endchar
        </CharString>
        <CharString name="ugrave">
          -102 callsubr
          hintmask 10111000
          244 102 -100 callgsubr
        </CharString>
        <CharString name="underscore">
          14 -138 48 hstem
          -21 576 vstem
          -1 -90 rmoveto
          -14 -6 -6 -14 hvcurveto
          -8 vlineto
          -14 6 -6 14 vhcurveto
          536 hlineto
          14 6 6 14 hvcurveto
          8 vlineto
          14 -6 6 -14 vhcurveto
          endchar
        </CharString>
        <CharString name="uni00AD">
          -50 callgsubr
        </CharString>
        <CharString name="v">
          -35 -27 callsubr
          hstem
          21 443 vstem
          185 14 rmoveto
          -37 callsubr
          35 -47 callsubr
          161 480 -52 callgsubr
          -134 -405 -134 405 rlineto
          12 -4 -16 -32 callsubr
          endchar
        </CharString>
        <CharString name="w">
          227 -27 callsubr
          hstemhm
          30 685 hintmask 00000000
          167 14 rmoveto
          -12 3 17 -4 20 hhcurveto
          33 -12 callgsubr
          94 364 92 -364 rlineto
          -12 3 16 -4 20 hhcurveto
          33 -12 callgsubr
          134 480 -36 callsubr
          -14 6 -30 -20 -19 -4 -12 -3 vhcurveto
          hintmask 11100000
          -104 -399 -105 398 rlineto
          13 -4 -15 4 -20 hhcurveto
          -11 0 callsubr
          -4 -13 -3 hvcurveto
          -104 -398 -105 399 rlineto
          12 -3 -17 4 -20 hhcurveto
          -9 -43 callgsubr
          endchar
        </CharString>
        <CharString name="x">
          -35 -27 callsubr
          hstem
          20 445 19 callsubr
          4 hlineto
          18 17 3 11 8 hvcurveto
          127 184 125 -183 rlineto
          -12 8 14 -3 21 hhcurveto
          11 10 callsubr
          -162 237 151 220 rlineto
          5 7 3 6 5 vvcurveto
          12 -13 5 -33 vhcurveto
          -4 hlineto
          -18 -18 -3 -11 -7 hvcurveto
          -115 -167 -114 166 -65 callgsubr
          150 -222 -162 -235 -3 callsubr
          -5 vvcurveto
          endchar
        </CharString>
        <CharString name="y">
          9 callgsubr
          hstem
          18 444 vstem
          -86 callsubr
          endchar
        </CharString>
        <CharString name="yacute">
          9 callgsubr
          100 -15 callsubr
          18 444 -278 168 26 callgsubr
          -86 callsubr
          hintmask 00101000
          186 110 -103 callsubr
        </CharString>
        <CharString name="ydieresis">
          9 callgsubr
          102 95 hstemhm
          18 444 -336 84 60 84 26 callgsubr
          -86 callsubr
          hintmask 00101100
          289 112 -101 callsubr
          -144 hmoveto
          -107 callgsubr
          endchar
        </CharString>
        <CharString name="yen">
          39 19 -21 193 68 96 68 279 -20 hstem
          235 88 vstem
          68 191 rmoveto
          167 -171 hlineto
          -99 callsubr
          8 -102 callgsubr
          171 169 vlineto
          -90 callgsubr
          8 -94 callgsubr
          -169 96 169 4 callsubr
          -124 hlineto
          165 244 -83 callgsubr
          165 -244 rlineto
          -123 -65 callsubr
          -8 -83 callsubr
          167 -96 -167 -65 callsubr
          -8 -54 callgsubr
        </CharString>
        <CharString name="z">
          -31 0 72 379 72 hstem
          37 412 vstem
          -66 callsubr
          endchar
        </CharString>
        <CharString name="zcaron">
          -31 0 72 379 72 59 6 callsubr
          37 412 -316 242 26 callgsubr
          -66 callsubr
          hintmask 00101000
          182 582 -94 callsubr
        </CharString>
        <CharString name="zero">
          15 26 callsubr
          hstem
          39 85 286 85 vstem
          266 -6 rmoveto
          121 108 107 249 249 -108 107 -121 -120 -107 -107 -249 -249 107 -107 120 hvcurveto
          72 vmoveto
          -72 -70 75 209 209 70 75 72 72 72 -75 -209 -209 -72 -75 -72 hvcurveto
          endchar
        </CharString>
      <CharString index="0">
        -105 callsubr
        -51 vlineto
        -99 callsubr
        return
      </CharString>
      <CharString index="1">
        -59 callsubr
        hstemhm
        49 90 242 -19 callsubr
        -70 callgsubr
        hintmask 10111100
        -96 callgsubr
        hintmask 01111100
        -91 callgsubr
        return
      </CharString>
      <CharString index="2">
        12 15 rmoveto
        -11 13 -6 30 vhcurveto
        5 -47 callsubr
        57 164 rlineto
        31 callsubr
        59 -164 rlineto
        -37 callsubr
        8 hlineto
        30 13 7 10 4 -1 4 -2 5 31 callgsubr
        658 -47 callgsubr
        -29 0 callsubr
        -4 -12 -4 31 callgsubr
        -657 rlineto
        -2 -6 -24 callgsubr
        173 239 rmoveto
        105 298 16 58 13 -58 105 -298 rlineto
        return
      </CharString>
      <CharString index="3">
        21 19 6 12 11 hvcurveto
        84 96 10 9 11 vvcurveto
        10 -16 3 -32 -32 -19 -7 -19 -11 vhcurveto
        -46 -80 -12 -21 -10 vvcurveto
        -7 7 -3 16 vhcurveto
        return
      </CharString>
      <CharString index="4">
        hlineto
        -28 -12 -8 -14 hvcurveto
        return
      </CharString>
      <CharString index="5">
        hlineto
        28 12 -78 callsubr
        return
      </CharString>
      <CharString index="6">
        -62 callsubr
        -42 callgsubr
        -74 callsubr
        vhcurveto
        -89 callgsubr
        return
      </CharString>
      <CharString index="7">
        rmoveto
        16 7 3 7 10 -12 21 -46 80 hvcurveto
        19 -11 -19 7 -32 hhcurveto
        -32 -16 -3 -10 -11 10 -9 84 -96 hvcurveto
        -12 11 19 -6 21 hhcurveto
        endchar
      </CharString>
      <CharString index="8">
        hintmask 00000000
        hintmask 11101000
        -105 callgsubr
        return
      </CharString>
      <CharString index="9">
        4 -102 callgsubr
        return
      </CharString>
      <CharString index="10">
        -74 callgsubr
        174 -80 96 -147 -33 callgsubr
        vhcurveto
        229 -193 rmoveto
        -98 -43 -23 callgsubr
        44 -64 callgsubr
        return
      </CharString>
      <CharString index="11">
        -91 callsubr
        224 vlineto
        99 -73 58 -124 -49 callsubr
        vhcurveto
        10 55 42 91 hhcurveto
        83 27 -39 -45 hvcurveto
        -47 vlineto
        return
      </CharString>
      <CharString index="12">
        55 258 rmoveto
        -179 79 -85 166 -43 callsubr
        vhcurveto
        -81 callgsubr
        -153 -80 -94 -177 hvcurveto
        90 41 -57 callgsubr
        return
      </CharString>
      <CharString index="13">
        vlineto
        21 -6 9 -14 vhcurveto
        return
      </CharString>
      <CharString index="14">
        83 224 rmoveto
        -144 96 -86 177 176 97 86 144 vhcurveto
        456 -92 callgsubr
        -459 vlineto
        -88 -78 -63 -107 -106 -79 62 89 vhcurveto
        459 -92 callgsubr
        return
      </CharString>
      <CharString index="15">
        vlineto
        -100 callsubr
        -8 -103 callgsubr
        return
      </CharString>
      <CharString index="16">
        -153 -2 -179 -11 -169 vvcurveto
        32 callgsubr
        104 138 0 104 1 vhcurveto
        -118 vlineto
        -36 -40 -44 -33 -73 hhcurveto
        -56 -29 29 53 hvcurveto
        return
      </CharString>
      <CharString index="17">
        14 6 9 21 hvcurveto
        return
      </CharString>
      <CharString index="18">
        308 -282 rmoveto
        -141 -76 98 184 -68 callsubr
        -184 -77 -98 -141 hvcurveto
        return
      </CharString>
      <CharString index="19">
        rmoveto
        -99 callsubr
        -92 callsubr
        return
      </CharString>
      <CharString index="20">
        91 -20 callsubr
        -101 callgsubr
        hintmask 00101000
        return
      </CharString>
      <CharString index="21">
        235 -79 callgsubr
        336 vlineto
        210 311 -83 callgsubr
        209 -308 rlineto
        return
      </CharString>
      <CharString index="22">
        -366 vlineto
        -43 -33 -48 -27 -45 hhcurveto
        -65 -37 36 61 hvcurveto
        339 vlineto
        -106 callsubr
        return
      </CharString>
      <CharString index="23">
        -20 -8 -13 -26 -39 -35 20 -54 hhcurveto
        -53 -54 -31 -25 -11 13 -19 16 hvcurveto
        21 15 13 18 hhcurveto
        endchar
      </CharString>
      <CharString index="24">
        -44 callsubr
        -20 -18 -3 -11 -7 vhcurveto
        -168 -247 -164 246 -65 callgsubr
        return
      </CharString>
      <CharString index="25">
        87 -20 callsubr
        -97 callgsubr
        hintmask 00101000
        return
      </CharString>
      <CharString index="26">
        -10 -49 -42 -87 hhcurveto
        -99 -47 50 111 -50 callsubr
        170 -69 91 -137 return
      </CharString>
      <CharString index="27">
        97 20 rmoveto
        -77 callgsubr
        return
      </CharString>
      <CharString index="28">
        20 rmoveto
        -99 callsubr
        8 -102 callgsubr
        return
      </CharString>
      <CharString index="29">
        -21 6 -9 14 vhcurveto
        return
      </CharString>
      <CharString index="30">
        -99 callsubr
        8 -102 callgsubr
        660 -92 callgsubr
        return
      </CharString>
      <CharString index="31">
        hintmask 00000000
        90 5 -29 callsubr
        -59 callgsubr
        -13 callsubr
        58 292 -3 callgsubr
        hintmask 11101110
        -58 callgsubr
        hintmask 11110110
        -10 11 -4 10 vhcurveto
        return
      </CharString>
      <CharString index="32">
        -14 -6 -9 -21 hvcurveto
        return
      </CharString>
      <CharString index="33">
        -60 callsubr
        149 78 92 173 return
      </CharString>
      <CharString index="34">
        rmoveto
        -11 8 -19 6 vhcurveto
        175 -76 hlineto
        -8 6 -5 12 vhcurveto
        13 hlineto
        12 5 5 8 hvcurveto
        76 39 vlineto
        8 3 6 -24 callsubr
        -39 262 hlineto
        8 -5 5 -12 vhcurveto
        -9 hlineto
        -8 -8 -3 -5 -4 hvcurveto
        -190 -272 rlineto
        -1 -2 0 -3 -2 vvcurveto
        57 12 rmoveto
        131 195 3 -2 rlineto
        0 -2 -51 -11 vvcurveto
        -131 vlineto
        endchar
      </CharString>
      <CharString index="35">
        vlineto
        -68 callgsubr
        return
      </CharString>
      <CharString index="36">
        rmoveto
        47 38 37 47 47 -38 38 -47 -47 -37 -38 -47 -47 37 -37 47 hvcurveto
        35 vmoveto
        -28 -21 21 28 28 21 22 28 28 22 -22 -28 -28 -22 -21 -28 hvcurveto
        endchar
      </CharString>
      <CharString index="37">
        49 144 rmoveto
        -103 74 -47 97 75 55 33 42 38 vhcurveto
        return
      </CharString>
      <CharString index="38">
        35 54 rmoveto
        -23 73 -37 91 99 74 68 90 96 -38 35 -123 38 vhcurveto
        -56 17 -21 19 35 vvcurveto
        40 33 25 55 -29 callgsubr
        -99 -67 -59 -89 -70 33 -34 105 -30 hvcurveto
        75 -21 26 -27 -47 vvcurveto
        -55 -35 -31 -64 vhcurveto
        -71 -40 38 -7 hhcurveto
        -14 -21 -39 -11 hvcurveto
        return
      </CharString>
      <CharString index="39">
        -90 callgsubr
        12 -94 callgsubr
        return
      </CharString>
      <CharString index="40">
        37 67 rmoveto
        -27 90 -46 117 135 87 74 123 vhcurveto
        248 -325 -67 146 vvcurveto
        76 54 36 75 vhcurveto
        79 37 -38 15 hhcurveto
        10 22 38 15 36 -104 25 -57 -134 -88 -73 -111 hvcurveto
        -235 325 77 -173 vvcurveto
        -74 -55 -47 -76 vhcurveto
        -103 -56 51 -13 hhcurveto
        -11 -24 -38 -16 hvcurveto
        return
      </CharString>
      <CharString index="41">
        62 hmoveto
        487 hlineto
        14 6 10 24 hvcurveto
        8 vlineto
        24 -6 10 -14 vhcurveto
        -391 hlineto
        410 559 rlineto
        2 3 1 4 5 vvcurveto
        21 -15 32 -7 vhcurveto
        -458 hlineto
        -14 -6 -10 -24 hvcurveto
        -8 vlineto
        -24 6 -10 14 vhcurveto
        360 hlineto
        -410 -559 rlineto
        -2 -3 -1 -4 -5 vvcurveto
        -20 14 -33 10 vhcurveto
        return
      </CharString>
      <CharString index="42">
        rlineto
        12 -8 -14 3 -21 hhcurveto
        -11 -52 callsubr
        return
      </CharString>
      <CharString index="43">
        62 97 98 45 -63 -133 -133 -45 -62 -98 hvcurveto
        return
      </CharString>
      <CharString index="44">
        220 hlineto
        8 3 5 -24 callsubr
        -166 hlineto
        42 51 rlineto
        116 142 16 21 54 vvcurveto
        61 -47 37 -76 -35 -69 -18 -24 -9 13 -20 6 vhcurveto
        10 24 29 52 hhcurveto
        45 27 -23 -36 -41 -8 -5 -180 -225 hvcurveto
        -1 -2 -24 callgsubr
        return
      </CharString>
      <CharString index="45">
        9 hlineto
        27 13 13 19 62 11 47 23 44 hvcurveto
        4 8 5 10 6 vvcurveto
        12 -18 3 -11 -33 -70 -76 -120 -17 15 -11 25 vhcurveto
        return
      </CharString>
      <CharString index="46">
        26 -6 -5 40 -24 hhcurveto
        -13 -41 -4 -19 hvcurveto
        -5 12 -39 -82 vvcurveto
        return
      </CharString>
      <CharString index="47">
        -4 -8 -5 -10 -6 vvcurveto
        -12 18 -3 11 return
      </CharString>
      <CharString index="48">
        406 671 -28 callgsubr
        -5 2 -9 vhcurveto
        -13 hlineto
        -14 -9 -5 -12 -7 hvcurveto
        -406 -671 rlineto
        return
      </CharString>
      <CharString index="49">
        379 vlineto
        7 -9 5 -9 vhcurveto
        -106 -28 rlineto
        -7 -2 -3 -3 -6 vvcurveto
        -11 3 -19 9 vhcurveto
        74 16 rlineto
        -338 vlineto
        return
      </CharString>
      <CharString index="50">
        rmoveto
        105 7 46 53 87 hhcurveto
        80 40 -53 -105 hvcurveto
        return
      </CharString>
      <CharString index="51">
        33 70 76 120 17 -15 11 -25 return
      </CharString>
      <CharString index="52">
        38 36 -20 54 hhcurveto
        53 54 31 25 hvcurveto
        return
      </CharString>
      <CharString index="53">
        -83 callsubr
        endchar
      </CharString>
      <CharString index="54">
        vlineto
        -95 callsubr
        299 vmoveto
        274 vlineto
        45 41 50 24 44 hhcurveto
        79 44 -73 -129 -119 -45 -65 -86 -2 hvcurveto
        -6 hlineto
        -43 -42 15 30 -36 hvcurveto
        endchar
      </CharString>
      <CharString index="55">
        -44 callgsubr
        -21 -16 -4 -12 -4 vhcurveto
        return
      </CharString>
      <CharString index="56">
        30 rmoveto
        -39 callsubr
        return
      </CharString>
      <CharString index="57">
        17 callsubr
        44 229 vstem
        64 22 callsubr
        189 hlineto
        -90 callgsubr
        10 -94 callgsubr
        -189 -57 callsubr
      </CharString>
      <CharString index="58">
        93 19 -21 180 76 448 -20 return
      </CharString>
      <CharString index="59">
        379 rmoveto
        -58 callsubr
        -134 75 -27 62 hvcurveto
        55 vmoveto
        -65 -6 59 47 -48 callsubr
        hvcurveto
        return
      </CharString>
      <CharString index="60">
        rlineto
        12 -4 -16 4 -20 hhcurveto
        return
      </CharString>
      <CharString index="61">
        97 -79 callgsubr
        return
      </CharString>
      <CharString index="62">
        -134 75 -27 62 -58 callsubr
        vhcurveto
        return
      </CharString>
      <CharString index="63">
        -36 callsubr
        -13 6 -30 return
      </CharString>
      <CharString index="64">
        -41 callsubr
        -3 hvcurveto
        return
      </CharString>
      <CharString index="65">
        201 108 124 234 return
      </CharString>
      <CharString index="66">
        vlineto
        20 -10 10 -20 vhcurveto
        return
      </CharString>
      <CharString index="67">
        -40 callsubr
        hintmask 10101000
        -31 callgsubr
        return
      </CharString>
      <CharString index="68">
        hstem
        97 88 -61 callsubr
        return
      </CharString>
      <CharString index="69">
        hmoveto
        -48 callsubr
        -65 -6 59 47 vhcurveto
        return
      </CharString>
      <CharString index="70">
        hlineto
        -19 -11 -10 -20 hvcurveto
        return
      </CharString>
      <CharString index="71">
        84 -72 callgsubr
        -84 105 hlineto
        24 callgsubr
        -10 -8 -14 -1 hvcurveto
        -12 -105 rlineto
        return
      </CharString>
      <CharString index="72">
        0 76 244 -1 callsubr
        return
      </CharString>
      <CharString index="73">
        rmoveto
        404 hlineto
        7 callsubr
        -404 -37 callgsubr
        -7 vlineto
        -22 callgsubr
        return
      </CharString>
      <CharString index="74">
        -149 -83 -97 -173 return
      </CharString>
      <CharString index="75">
        90 20 rmoveto
        -99 callsubr
        7 -102 callgsubr
        return
      </CharString>
      <CharString index="76">
        -52 -44 26 -75 hhcurveto
        -65 -62 -31 -21 -6 2 -5 3 -6 hvcurveto
        return
      </CharString>
      <CharString index="77">
        -255 -27 callsubr
        return
      </CharString>
      <CharString index="78">
        vhcurveto
        54 32 -24 5 -12 callsubr
        22 -63 20 -68 return
      </CharString>
      <CharString index="79">
        rlineto
        2 4 2 3 3 vvcurveto
        5 return
      </CharString>
      <CharString index="80">
        49 -33 callsubr
        return
      </CharString>
      <CharString index="81">
        45 rmoveto
        -30 39 42 -21 62 hhcurveto
        119 84 94 168 hvcurveto
        9 vlineto
        152 -74 112 -120 return
      </CharString>
      <CharString index="82">
        vlineto
        14 -7 8 -17 vhcurveto
        -10 hlineto
        -17 -7 -8 -14 hvcurveto
        return
      </CharString>
      <CharString index="83">
        -1 -4 -4 vvcurveto
        return
      </CharString>
      <CharString index="84">
        62 133 134 return
      </CharString>
      <CharString index="85">
        -19 11 -11 19 vhcurveto
        return
      </CharString>
      <CharString index="86">
        -14 -6 -8 -21 hvcurveto
        -4 vlineto
        -21 6 -8 14 vhcurveto
        return
      </CharString>
      <CharString index="87">
        -238 -46 callsubr
        return
      </CharString>
      <CharString index="88">
        73 -53 73 -7 -20 hstemhm
        return
      </CharString>
      <CharString index="89">
        18 hlineto
        52 35 -17 -60 -62 -49 -17 -35 hvcurveto
        -50 -30 20 -11 hhcurveto
        -6 -14 -18 -11 hvcurveto
        return
      </CharString>
      <CharString index="90">
        -6 0 callgsubr
        return
      </CharString>
      <CharString index="91">
        rlineto
        12 7 7 9 14 vvcurveto
        6 vlineto
        9 -4 5 -5 -3 -3 -2 -2 -4 vhcurveto
        return
      </CharString>
      <CharString index="92">
        hvcurveto
        -14 callsubr
      </CharString>
      <CharString index="93">
        rmoveto
        250 142 vlineto
        59 76 -21 -99 -109 -81 -21 -40 hvcurveto
        endchar
      </CharString>
      <CharString index="94">
        -46 callsubr
        hstem
        return
      </CharString>
      <CharString index="95">
        hlineto
        20 17 4 12 3 hvcurveto
        return
      </CharString>
      <CharString index="96">
        14 -9 8 -21 vhcurveto
        return
      </CharString>
      <CharString index="97">
        -49 callgsubr
        103 147 9 callsubr
        return
      </CharString>
      <CharString index="98">
        -187 -21 202 74 388 73 return
      </CharString>
      <CharString index="99">
        -12 16 -6 vhcurveto
        356 -145 -356 -146 rlineto
        -16 -7 return
      </CharString>
      <CharString index="100">
        19 -35 callsubr
        76 -15 callsubr
        55 90 return
      </CharString>
      <CharString index="101">
        9 -12 -5 -5 -1 -2 -5 vhcurveto
        -411 -174 rlineto
        -16 -7 return
      </CharString>
      <CharString index="102">
        -90 callgsubr
        20 -94 callgsubr
        -157 return
      </CharString>
      <CharString index="103">
        -2 -5 -1 -5 -5 vvcurveto
        -12 9 -8 17 vhcurveto
        4 hlineto
        17 return
      </CharString>
      <CharString index="104">
        rmoveto
        5 hlineto
        10 12 4 10 hvcurveto
        return
      </CharString>
      <CharString index="105">
        -3 6 -5 7 hvcurveto
        return
      </CharString>
      <CharString index="106">
        -14 7 -8 17 vhcurveto
        return
      </CharString>
      <CharString index="107">
        76 560 76 return
      </CharString>
      <CharString index="108">
        -65 callsubr
        -16 -83 callsubr
        return
      </CharString>
      <CharString index="109">
        rlineto
        -5 5 4 -3 5 hhcurveto
        4 5 3 5 5 hvcurveto
        return
      </CharString>
      <CharString index="110">
        rlineto
        -5 -5 -3 -5 -4 vvcurveto
        -5 3 -4 5 -5 vhcurveto
        return
      </CharString>
      <CharString index="111">
        rmoveto
        411 -174 rlineto
        -2 5 5 -1 5 hhcurveto
        12 return
      </CharString>
      <CharString index="112">
        -21 callsubr
        103 -15 callsubr
        83 88 return
      </CharString>
      <CharString index="113">
        87 70 28 23 14 -20 37 -14 -1 -4 -2 -2 -6 return
      </CharString>
      <CharString index="114">
        -27 callgsubr
        76 -15 callsubr
        55 88 return
      </CharString>
      <CharString index="115">
        rlineto
        7 8 3 7 5 vvcurveto
        7 -11 6 -24 vhcurveto
        return
      </CharString>
      <CharString index="116">
        -39 -187 -21 733 -20 return
      </CharString>
      <CharString index="117">
        74 -48 74 hstemhm
        79 389 hintmask 00000000
        108 return
      </CharString>
      <CharString index="118">
        hlineto
        31 13 3 11 4 -2 4 -7 8 hvcurveto
        return
      </CharString>
      <CharString index="119">
        -19 callsubr
        hintmask 11001000
        return
      </CharString>
      <CharString index="120">
        5 2 4 5 vvcurveto
        return
      </CharString>
      <CharString index="121">
        40 107 68 96 67 hstem
        48 464 vstem
        return
      </CharString>
      <CharString index="122">
        vlineto
        -11 6 -5 14 14 6 5 11 vhcurveto
        return
      </CharString>
      <CharString index="123">
        hlineto
        -23 callsubr
        return
      </CharString>
      <CharString index="124">
        66 144 64 return
      </CharString>
      <CharString index="125">
        -229 -138 62 781 63 hstem
        return
      </CharString>
      <CharString index="126">
        80 200 -20 hstem
        227 82 vstem
        return
      </CharString>
      <CharString index="127">
        -246 -138 62 782 62 hstem
        return
      </CharString>
      <CharString index="128">
        -14 14 -8 28 30 10 8 14 vhcurveto
        return
      </CharString>
      <CharString index="129">
        -19 hhcurveto
        -11 -24 -31 -19 hvcurveto
        endchar
      </CharString>
      <CharString index="130">
        46 0 73 hstem
        48 470 vstem
        return
      </CharString>
      <CharString index="131">
        -11 callgsubr
        -10 hlineto
        -21 return
      </CharString>
      <CharString index="132">
        174 rlineto
        9 -9 6 -19 vhcurveto
        return
      </CharString>
      <CharString index="133">
        hintmask 00000000
        hintmask 11010000
        return
      </CharString>
      <CharString index="134">
        17 hvcurveto
        14 vlineto
        17 return
      </CharString>
      <CharString index="135">
        0 76 548 76 return
      </CharString>
      <CharString index="136">
        110 hstem
        51 97 return
      </CharString>
      <CharString index="137">
        76 hstem
        57 91 return
      </CharString>
      <CharString index="138">
        hvcurveto
        -237 return
      </CharString>
      <CharString index="139">
        90 5 rmoveto
        return
      </CharString>
</ttFont>
